%TF.GenerationSoftware,KiCad,Pcbnew,6.0.11-2627ca5db0~126~ubuntu22.04.1*%
%TF.CreationDate,2023-03-26T13:10:57+01:00*%
%TF.ProjectId,PROTO2_PCB,50524f54-4f32-45f5-9043-422e6b696361,rev?*%
%TF.SameCoordinates,Original*%
%TF.FileFunction,Soldermask,Top*%
%TF.FilePolarity,Negative*%
%FSLAX46Y46*%
G04 Gerber Fmt 4.6, Leading zero omitted, Abs format (unit mm)*
G04 Created by KiCad (PCBNEW 6.0.11-2627ca5db0~126~ubuntu22.04.1) date 2023-03-26 13:10:57*
%MOMM*%
%LPD*%
G01*
G04 APERTURE LIST*
%ADD10C,0.150000*%
%ADD11C,1.524000*%
%ADD12C,4.000000*%
%ADD13R,1.700000X1.700000*%
%ADD14O,1.700000X1.700000*%
%ADD15C,2.500000*%
G04 APERTURE END LIST*
D10*
G36*
X133000000Y-140700000D02*
G01*
X121000000Y-140700000D01*
X121000000Y-138900000D01*
X133000000Y-138900000D01*
X133000000Y-140700000D01*
G37*
X133000000Y-140700000D02*
X121000000Y-140700000D01*
X121000000Y-138900000D01*
X133000000Y-138900000D01*
X133000000Y-140700000D01*
G36*
X183800000Y-140700000D02*
G01*
X171800000Y-140700000D01*
X171800000Y-138900000D01*
X183800000Y-138900000D01*
X183800000Y-140700000D01*
G37*
X183800000Y-140700000D02*
X171800000Y-140700000D01*
X171800000Y-138900000D01*
X183800000Y-138900000D01*
X183800000Y-140700000D01*
G36*
X120300000Y-143100000D02*
G01*
X108300000Y-143100000D01*
X108300000Y-141300000D01*
X120300000Y-141300000D01*
X120300000Y-143100000D01*
G37*
X120300000Y-143100000D02*
X108300000Y-143100000D01*
X108300000Y-141300000D01*
X120300000Y-141300000D01*
X120300000Y-143100000D01*
G36*
X120300000Y-140700000D02*
G01*
X108300000Y-140700000D01*
X108300000Y-138900000D01*
X120300000Y-138900000D01*
X120300000Y-140700000D01*
G37*
X120300000Y-140700000D02*
X108300000Y-140700000D01*
X108300000Y-138900000D01*
X120300000Y-138900000D01*
X120300000Y-140700000D01*
G36*
X183800000Y-143100000D02*
G01*
X171800000Y-143100000D01*
X171800000Y-141300000D01*
X183800000Y-141300000D01*
X183800000Y-143100000D01*
G37*
X183800000Y-143100000D02*
X171800000Y-143100000D01*
X171800000Y-141300000D01*
X183800000Y-141300000D01*
X183800000Y-143100000D01*
G36*
X133000000Y-143100000D02*
G01*
X121000000Y-143100000D01*
X121000000Y-141300000D01*
X133000000Y-141300000D01*
X133000000Y-143100000D01*
G37*
X133000000Y-143100000D02*
X121000000Y-143100000D01*
X121000000Y-141300000D01*
X133000000Y-141300000D01*
X133000000Y-143100000D01*
G36*
X171100000Y-140700000D02*
G01*
X159100000Y-140700000D01*
X159100000Y-138900000D01*
X171100000Y-138900000D01*
X171100000Y-140700000D01*
G37*
X171100000Y-140700000D02*
X159100000Y-140700000D01*
X159100000Y-138900000D01*
X171100000Y-138900000D01*
X171100000Y-140700000D01*
G36*
X171100000Y-143100000D02*
G01*
X159100000Y-143100000D01*
X159100000Y-141300000D01*
X171100000Y-141300000D01*
X171100000Y-143100000D01*
G37*
X171100000Y-143100000D02*
X159100000Y-143100000D01*
X159100000Y-141300000D01*
X171100000Y-141300000D01*
X171100000Y-143100000D01*
D11*
%TO.C,REF\u002A\u002A*%
X165100000Y-58420000D03*
X165100000Y-60960000D03*
X165100000Y-63500000D03*
X165100000Y-66040000D03*
X165100000Y-68580000D03*
%TD*%
%TO.C,REF\u002A\u002A*%
X124460000Y-96520000D03*
X124460000Y-99060000D03*
X124460000Y-101600000D03*
X124460000Y-104140000D03*
X124460000Y-106680000D03*
%TD*%
D12*
%TO.C,H3*%
X62500000Y-145000000D03*
%TD*%
D11*
%TO.C,REF\u002A\u002A*%
X96520000Y-81280000D03*
X99060000Y-81280000D03*
X101600000Y-81280000D03*
X104140000Y-81280000D03*
X106680000Y-81280000D03*
%TD*%
%TO.C,REF\u002A\u002A*%
X147320000Y-137160000D03*
X149860000Y-137160000D03*
X152400000Y-137160000D03*
X154940000Y-137160000D03*
X157480000Y-137160000D03*
%TD*%
D13*
%TO.C,J7*%
X100330000Y-59690000D03*
%TD*%
D11*
%TO.C,REF\u002A\u002A*%
X71120000Y-83820000D03*
X73660000Y-83820000D03*
X76200000Y-83820000D03*
X78740000Y-83820000D03*
X81280000Y-83820000D03*
%TD*%
%TO.C,REF\u002A\u002A*%
X134620000Y-83820000D03*
X137160000Y-83820000D03*
X139700000Y-83820000D03*
X142240000Y-83820000D03*
X144780000Y-83820000D03*
%TD*%
%TO.C,REF\u002A\u002A*%
X210820000Y-81280000D03*
X213360000Y-81280000D03*
X215900000Y-81280000D03*
X218440000Y-81280000D03*
X220980000Y-81280000D03*
%TD*%
%TO.C,REF\u002A\u002A*%
X71120000Y-142240000D03*
X73660000Y-142240000D03*
X76200000Y-142240000D03*
X78740000Y-142240000D03*
X81280000Y-142240000D03*
%TD*%
%TO.C,REF\u002A\u002A*%
X121920000Y-134620000D03*
X124460000Y-134620000D03*
X127000000Y-134620000D03*
X129540000Y-134620000D03*
X132080000Y-134620000D03*
%TD*%
%TO.C,REF\u002A\u002A*%
X210820000Y-134620000D03*
X213360000Y-134620000D03*
X215900000Y-134620000D03*
X218440000Y-134620000D03*
X220980000Y-134620000D03*
%TD*%
%TO.C,REF\u002A\u002A*%
X185420000Y-58420000D03*
X185420000Y-60960000D03*
X185420000Y-63500000D03*
X185420000Y-66040000D03*
X185420000Y-68580000D03*
%TD*%
%TO.C,REF\u002A\u002A*%
X147320000Y-86360000D03*
X149860000Y-86360000D03*
X152400000Y-86360000D03*
X154940000Y-86360000D03*
X157480000Y-86360000D03*
%TD*%
%TO.C,REF\u002A\u002A*%
X83820000Y-83820000D03*
X86360000Y-83820000D03*
X88900000Y-83820000D03*
X91440000Y-83820000D03*
X93980000Y-83820000D03*
%TD*%
%TO.C,REF\u002A\u002A*%
X78740000Y-96520000D03*
X78740000Y-99060000D03*
X78740000Y-101600000D03*
X78740000Y-104140000D03*
X78740000Y-106680000D03*
%TD*%
%TO.C,REF\u002A\u002A*%
X175260000Y-96520000D03*
X175260000Y-99060000D03*
X175260000Y-101600000D03*
X175260000Y-104140000D03*
X175260000Y-106680000D03*
%TD*%
%TO.C,REF\u002A\u002A*%
X71120000Y-86360000D03*
X73660000Y-86360000D03*
X76200000Y-86360000D03*
X78740000Y-86360000D03*
X81280000Y-86360000D03*
%TD*%
%TO.C,REF\u002A\u002A*%
X182880000Y-96520000D03*
X182880000Y-99060000D03*
X182880000Y-101600000D03*
X182880000Y-104140000D03*
X182880000Y-106680000D03*
%TD*%
%TO.C,REF\u002A\u002A*%
X91440000Y-114300000D03*
X91440000Y-116840000D03*
X91440000Y-119380000D03*
X91440000Y-121920000D03*
X91440000Y-124460000D03*
%TD*%
%TO.C,REF\u002A\u002A*%
X71120000Y-134620000D03*
X73660000Y-134620000D03*
X76200000Y-134620000D03*
X78740000Y-134620000D03*
X81280000Y-134620000D03*
%TD*%
%TO.C,REF\u002A\u002A*%
X86360000Y-96520000D03*
X86360000Y-99060000D03*
X86360000Y-101600000D03*
X86360000Y-104140000D03*
X86360000Y-106680000D03*
%TD*%
%TO.C,REF\u002A\u002A*%
X127000000Y-114300000D03*
X127000000Y-116840000D03*
X127000000Y-119380000D03*
X127000000Y-121920000D03*
X127000000Y-124460000D03*
%TD*%
%TO.C,REF\u002A\u002A*%
X162560000Y-96520000D03*
X162560000Y-99060000D03*
X162560000Y-101600000D03*
X162560000Y-104140000D03*
X162560000Y-106680000D03*
%TD*%
%TO.C,REF\u002A\u002A*%
X134620000Y-142240000D03*
X137160000Y-142240000D03*
X139700000Y-142240000D03*
X142240000Y-142240000D03*
X144780000Y-142240000D03*
%TD*%
%TO.C,REF\u002A\u002A*%
X83820000Y-137160000D03*
X86360000Y-137160000D03*
X88900000Y-137160000D03*
X91440000Y-137160000D03*
X93980000Y-137160000D03*
%TD*%
%TO.C,REF\u002A\u002A*%
X76200000Y-96520000D03*
X76200000Y-99060000D03*
X76200000Y-101600000D03*
X76200000Y-104140000D03*
X76200000Y-106680000D03*
%TD*%
%TO.C,REF\u002A\u002A*%
X137160000Y-96520000D03*
X137160000Y-99060000D03*
X137160000Y-101600000D03*
X137160000Y-104140000D03*
X137160000Y-106680000D03*
%TD*%
%TO.C,REF\u002A\u002A*%
X147320000Y-132130000D03*
X149860000Y-132130000D03*
X152400000Y-132130000D03*
X154940000Y-132130000D03*
X157480000Y-132130000D03*
%TD*%
%TO.C,REF\u002A\u002A*%
X195580000Y-96520000D03*
X195580000Y-99060000D03*
X195580000Y-101600000D03*
X195580000Y-104140000D03*
X195580000Y-106680000D03*
%TD*%
%TO.C,REF\u002A\u002A*%
X172720000Y-134570000D03*
X175260000Y-134570000D03*
X177800000Y-134570000D03*
X180340000Y-134570000D03*
X182880000Y-134570000D03*
%TD*%
%TO.C,REF\u002A\u002A*%
X167640000Y-114300000D03*
X167640000Y-116840000D03*
X167640000Y-119380000D03*
X167640000Y-121920000D03*
X167640000Y-124460000D03*
%TD*%
%TO.C,REF\u002A\u002A*%
X134620000Y-137160000D03*
X137160000Y-137160000D03*
X139700000Y-137160000D03*
X142240000Y-137160000D03*
X144780000Y-137160000D03*
%TD*%
%TO.C,REF\u002A\u002A*%
X185420000Y-88900000D03*
X187960000Y-88900000D03*
X190500000Y-88900000D03*
X193040000Y-88900000D03*
X195580000Y-88900000D03*
%TD*%
%TO.C,REF\u002A\u002A*%
X99060000Y-96520000D03*
X99060000Y-99060000D03*
X99060000Y-101600000D03*
X99060000Y-104140000D03*
X99060000Y-106680000D03*
%TD*%
%TO.C,REF\u002A\u002A*%
X134620000Y-96520000D03*
X134620000Y-99060000D03*
X134620000Y-101600000D03*
X134620000Y-104140000D03*
X134620000Y-106680000D03*
%TD*%
%TO.C,REF\u002A\u002A*%
X185420000Y-83820000D03*
X187960000Y-83820000D03*
X190500000Y-83820000D03*
X193040000Y-83820000D03*
X195580000Y-83820000D03*
%TD*%
%TO.C,REF\u002A\u002A*%
X86360000Y-114300000D03*
X86360000Y-116840000D03*
X86360000Y-119380000D03*
X86360000Y-121920000D03*
X86360000Y-124460000D03*
%TD*%
%TO.C,REF\u002A\u002A*%
X157480000Y-114300000D03*
X157480000Y-116840000D03*
X157480000Y-119380000D03*
X157480000Y-121920000D03*
X157480000Y-124460000D03*
%TD*%
D13*
%TO.C,J2*%
X81750000Y-68500000D03*
D14*
X81750000Y-71040000D03*
%TD*%
D13*
%TO.C,J6*%
X100330000Y-68580000D03*
%TD*%
D11*
%TO.C,REF\u002A\u002A*%
X101600000Y-96520000D03*
X101600000Y-99060000D03*
X101600000Y-101600000D03*
X101600000Y-104140000D03*
X101600000Y-106680000D03*
%TD*%
%TO.C,REF\u002A\u002A*%
X215900000Y-114300000D03*
X215900000Y-116840000D03*
X215900000Y-119380000D03*
X215900000Y-121920000D03*
X215900000Y-124460000D03*
%TD*%
%TO.C,REF\u002A\u002A*%
X71120000Y-114300000D03*
X71120000Y-116840000D03*
X71120000Y-119380000D03*
X71120000Y-121920000D03*
X71120000Y-124460000D03*
%TD*%
%TO.C,REF\u002A\u002A*%
X198120000Y-132130000D03*
X200660000Y-132130000D03*
X203200000Y-132130000D03*
X205740000Y-132130000D03*
X208280000Y-132130000D03*
%TD*%
D15*
%TO.C,SM2*%
X220500000Y-68510000D03*
X217960000Y-71050000D03*
X223040000Y-65970000D03*
X217960000Y-65970000D03*
X223040000Y-71050000D03*
%TD*%
D11*
%TO.C,REF\u002A\u002A*%
X127000000Y-96520000D03*
X127000000Y-99060000D03*
X127000000Y-101600000D03*
X127000000Y-104140000D03*
X127000000Y-106680000D03*
%TD*%
%TO.C,REF\u002A\u002A*%
X109220000Y-114300000D03*
X109220000Y-116840000D03*
X109220000Y-119380000D03*
X109220000Y-121920000D03*
X109220000Y-124460000D03*
%TD*%
%TO.C,REF\u002A\u002A*%
X71120000Y-81280000D03*
X73660000Y-81280000D03*
X76200000Y-81280000D03*
X78740000Y-81280000D03*
X81280000Y-81280000D03*
%TD*%
%TO.C,REF\u002A\u002A*%
X134620000Y-78790000D03*
X137160000Y-78790000D03*
X139700000Y-78790000D03*
X142240000Y-78790000D03*
X144780000Y-78790000D03*
%TD*%
%TO.C,REF\u002A\u002A*%
X193040000Y-73660000D03*
X195580000Y-73660000D03*
X198120000Y-73660000D03*
X200660000Y-73660000D03*
X203200000Y-73660000D03*
%TD*%
%TO.C,REF\u002A\u002A*%
X129540000Y-58420000D03*
X129540000Y-60960000D03*
X129540000Y-63500000D03*
X129540000Y-66040000D03*
X129540000Y-68580000D03*
%TD*%
D13*
%TO.C,J1*%
X89500000Y-68500000D03*
%TD*%
D11*
%TO.C,REF\u002A\u002A*%
X147320000Y-114300000D03*
X147320000Y-116840000D03*
X147320000Y-119380000D03*
X147320000Y-121920000D03*
X147320000Y-124460000D03*
%TD*%
%TO.C,REF\u002A\u002A*%
X93980000Y-114300000D03*
X93980000Y-116840000D03*
X93980000Y-119380000D03*
X93980000Y-121920000D03*
X93980000Y-124460000D03*
%TD*%
%TO.C,REF\u002A\u002A*%
X213360000Y-96520000D03*
X213360000Y-99060000D03*
X213360000Y-101600000D03*
X213360000Y-104140000D03*
X213360000Y-106680000D03*
%TD*%
%TO.C,REF\u002A\u002A*%
X147320000Y-142240000D03*
X149860000Y-142240000D03*
X152400000Y-142240000D03*
X154940000Y-142240000D03*
X157480000Y-142240000D03*
%TD*%
%TO.C,REF\u002A\u002A*%
X147320000Y-78790000D03*
X149860000Y-78790000D03*
X152400000Y-78790000D03*
X154940000Y-78790000D03*
X157480000Y-78790000D03*
%TD*%
%TO.C,REF\u002A\u002A*%
X160020000Y-83770000D03*
X162560000Y-83770000D03*
X165100000Y-83770000D03*
X167640000Y-83770000D03*
X170180000Y-83770000D03*
%TD*%
%TO.C,REF\u002A\u002A*%
X134620000Y-88900000D03*
X137160000Y-88900000D03*
X139700000Y-88900000D03*
X142240000Y-88900000D03*
X144780000Y-88900000D03*
%TD*%
%TO.C,REF\u002A\u002A*%
X172720000Y-114300000D03*
X172720000Y-116840000D03*
X172720000Y-119380000D03*
X172720000Y-121920000D03*
X172720000Y-124460000D03*
%TD*%
%TO.C,REF\u002A\u002A*%
X172720000Y-96520000D03*
X172720000Y-99060000D03*
X172720000Y-101600000D03*
X172720000Y-104140000D03*
X172720000Y-106680000D03*
%TD*%
%TO.C,REF\u002A\u002A*%
X160020000Y-134570000D03*
X162560000Y-134570000D03*
X165100000Y-134570000D03*
X167640000Y-134570000D03*
X170180000Y-134570000D03*
%TD*%
%TO.C,REF\u002A\u002A*%
X76200000Y-114300000D03*
X76200000Y-116840000D03*
X76200000Y-119380000D03*
X76200000Y-121920000D03*
X76200000Y-124460000D03*
%TD*%
%TO.C,REF\u002A\u002A*%
X218440000Y-96520000D03*
X218440000Y-99060000D03*
X218440000Y-101600000D03*
X218440000Y-104140000D03*
X218440000Y-106680000D03*
%TD*%
%TO.C,REF\u002A\u002A*%
X83820000Y-134620000D03*
X86360000Y-134620000D03*
X88900000Y-134620000D03*
X91440000Y-134620000D03*
X93980000Y-134620000D03*
%TD*%
%TO.C,REF\u002A\u002A*%
X200660000Y-96520000D03*
X200660000Y-99060000D03*
X200660000Y-101600000D03*
X200660000Y-104140000D03*
X200660000Y-106680000D03*
%TD*%
%TO.C,REF\u002A\u002A*%
X127000000Y-58420000D03*
X127000000Y-60960000D03*
X127000000Y-63500000D03*
X127000000Y-66040000D03*
X127000000Y-68580000D03*
%TD*%
%TO.C,REF\u002A\u002A*%
X185420000Y-86360000D03*
X187960000Y-86360000D03*
X190500000Y-86360000D03*
X193040000Y-86360000D03*
X195580000Y-86360000D03*
%TD*%
%TO.C,REF\u002A\u002A*%
X165100000Y-96520000D03*
X165100000Y-99060000D03*
X165100000Y-101600000D03*
X165100000Y-104140000D03*
X165100000Y-106680000D03*
%TD*%
%TO.C,REF\u002A\u002A*%
X109220000Y-86360000D03*
X111760000Y-86360000D03*
X114300000Y-86360000D03*
X116840000Y-86360000D03*
X119380000Y-86360000D03*
%TD*%
%TO.C,REF\u002A\u002A*%
X205740000Y-96520000D03*
X205740000Y-99060000D03*
X205740000Y-101600000D03*
X205740000Y-104140000D03*
X205740000Y-106680000D03*
%TD*%
%TO.C,REF\u002A\u002A*%
X83820000Y-86360000D03*
X86360000Y-86360000D03*
X88900000Y-86360000D03*
X91440000Y-86360000D03*
X93980000Y-86360000D03*
%TD*%
%TO.C,REF\u002A\u002A*%
X160020000Y-86310000D03*
X162560000Y-86310000D03*
X165100000Y-86310000D03*
X167640000Y-86310000D03*
X170180000Y-86310000D03*
%TD*%
%TO.C,REF\u002A\u002A*%
X203200000Y-114300000D03*
X203200000Y-116840000D03*
X203200000Y-119380000D03*
X203200000Y-121920000D03*
X203200000Y-124460000D03*
%TD*%
%TO.C,REF\u002A\u002A*%
X147320000Y-139700000D03*
X149860000Y-139700000D03*
X152400000Y-139700000D03*
X154940000Y-139700000D03*
X157480000Y-139700000D03*
%TD*%
%TO.C,REF\u002A\u002A*%
X154940000Y-96520000D03*
X154940000Y-99060000D03*
X154940000Y-101600000D03*
X154940000Y-104140000D03*
X154940000Y-106680000D03*
%TD*%
%TO.C,REF\u002A\u002A*%
X116840000Y-73710000D03*
X119380000Y-73710000D03*
X121920000Y-73710000D03*
X124460000Y-73710000D03*
X127000000Y-73710000D03*
%TD*%
%TO.C,REF\u002A\u002A*%
X96520000Y-114300000D03*
X96520000Y-116840000D03*
X96520000Y-119380000D03*
X96520000Y-121920000D03*
X96520000Y-124460000D03*
%TD*%
D12*
%TO.C,H4*%
X229000000Y-145000000D03*
%TD*%
D11*
%TO.C,REF\u002A\u002A*%
X147320000Y-134620000D03*
X149860000Y-134620000D03*
X152400000Y-134620000D03*
X154940000Y-134620000D03*
X157480000Y-134620000D03*
%TD*%
%TO.C,REF\u002A\u002A*%
X124460000Y-114300000D03*
X124460000Y-116840000D03*
X124460000Y-119380000D03*
X124460000Y-121920000D03*
X124460000Y-124460000D03*
%TD*%
%TO.C,REF\u002A\u002A*%
X116840000Y-96520000D03*
X116840000Y-99060000D03*
X116840000Y-101600000D03*
X116840000Y-104140000D03*
X116840000Y-106680000D03*
%TD*%
%TO.C,REF\u002A\u002A*%
X114300000Y-96520000D03*
X114300000Y-99060000D03*
X114300000Y-101600000D03*
X114300000Y-104140000D03*
X114300000Y-106680000D03*
%TD*%
%TO.C,REF\u002A\u002A*%
X134620000Y-86360000D03*
X137160000Y-86360000D03*
X139700000Y-86360000D03*
X142240000Y-86360000D03*
X144780000Y-86360000D03*
%TD*%
%TO.C,REF\u002A\u002A*%
X71120000Y-132130000D03*
X73660000Y-132130000D03*
X76200000Y-132130000D03*
X78740000Y-132130000D03*
X81280000Y-132130000D03*
%TD*%
%TO.C,REF\u002A\u002A*%
X109220000Y-81280000D03*
X111760000Y-81280000D03*
X114300000Y-81280000D03*
X116840000Y-81280000D03*
X119380000Y-81280000D03*
%TD*%
%TO.C,REF\u002A\u002A*%
X132080000Y-96520000D03*
X132080000Y-99060000D03*
X132080000Y-101600000D03*
X132080000Y-104140000D03*
X132080000Y-106680000D03*
%TD*%
%TO.C,REF\u002A\u002A*%
X208280000Y-114300000D03*
X208280000Y-116840000D03*
X208280000Y-119380000D03*
X208280000Y-121920000D03*
X208280000Y-124460000D03*
%TD*%
%TO.C,REF\u002A\u002A*%
X129540000Y-114300000D03*
X129540000Y-116840000D03*
X129540000Y-119380000D03*
X129540000Y-121920000D03*
X129540000Y-124460000D03*
%TD*%
%TO.C,REF\u002A\u002A*%
X119380000Y-114300000D03*
X119380000Y-116840000D03*
X119380000Y-119380000D03*
X119380000Y-121920000D03*
X119380000Y-124460000D03*
%TD*%
%TO.C,REF\u002A\u002A*%
X144780000Y-96520000D03*
X144780000Y-99060000D03*
X144780000Y-101600000D03*
X144780000Y-104140000D03*
X144780000Y-106680000D03*
%TD*%
%TO.C,REF\u002A\u002A*%
X220980000Y-114300000D03*
X220980000Y-116840000D03*
X220980000Y-119380000D03*
X220980000Y-121920000D03*
X220980000Y-124460000D03*
%TD*%
%TO.C,REF\u002A\u002A*%
X218440000Y-114300000D03*
X218440000Y-116840000D03*
X218440000Y-119380000D03*
X218440000Y-121920000D03*
X218440000Y-124460000D03*
%TD*%
D15*
%TO.C,SM1*%
X71000000Y-68510000D03*
X68460000Y-65970000D03*
X68460000Y-71050000D03*
X73540000Y-65970000D03*
X73540000Y-71050000D03*
%TD*%
D11*
%TO.C,REF\u002A\u002A*%
X88900000Y-96520000D03*
X88900000Y-99060000D03*
X88900000Y-101600000D03*
X88900000Y-104140000D03*
X88900000Y-106680000D03*
%TD*%
%TO.C,REF\u002A\u002A*%
X104140000Y-73710000D03*
X106680000Y-73710000D03*
X109220000Y-73710000D03*
X111760000Y-73710000D03*
X114300000Y-73710000D03*
%TD*%
%TO.C,REF\u002A\u002A*%
X121920000Y-137160000D03*
X124460000Y-137160000D03*
X127000000Y-137160000D03*
X129540000Y-137160000D03*
X132080000Y-137160000D03*
%TD*%
%TO.C,REF\u002A\u002A*%
X160020000Y-137110000D03*
X162560000Y-137110000D03*
X165100000Y-137110000D03*
X167640000Y-137110000D03*
X170180000Y-137110000D03*
%TD*%
%TO.C,REF\u002A\u002A*%
X106680000Y-96520000D03*
X106680000Y-99060000D03*
X106680000Y-101600000D03*
X106680000Y-104140000D03*
X106680000Y-106680000D03*
%TD*%
%TO.C,REF\u002A\u002A*%
X177800000Y-114300000D03*
X177800000Y-116840000D03*
X177800000Y-119380000D03*
X177800000Y-121920000D03*
X177800000Y-124460000D03*
%TD*%
%TO.C,REF\u002A\u002A*%
X81280000Y-114300000D03*
X81280000Y-116840000D03*
X81280000Y-119380000D03*
X81280000Y-121920000D03*
X81280000Y-124460000D03*
%TD*%
%TO.C,REF\u002A\u002A*%
X185420000Y-81280000D03*
X187960000Y-81280000D03*
X190500000Y-81280000D03*
X193040000Y-81280000D03*
X195580000Y-81280000D03*
%TD*%
%TO.C,REF\u002A\u002A*%
X210820000Y-88900000D03*
X213360000Y-88900000D03*
X215900000Y-88900000D03*
X218440000Y-88900000D03*
X220980000Y-88900000D03*
%TD*%
%TO.C,REF\u002A\u002A*%
X104140000Y-96520000D03*
X104140000Y-99060000D03*
X104140000Y-101600000D03*
X104140000Y-104140000D03*
X104140000Y-106680000D03*
%TD*%
%TO.C,REF\u002A\u002A*%
X185420000Y-78790000D03*
X187960000Y-78790000D03*
X190500000Y-78790000D03*
X193040000Y-78790000D03*
X195580000Y-78790000D03*
%TD*%
%TO.C,REF\u002A\u002A*%
X104140000Y-114300000D03*
X104140000Y-116840000D03*
X104140000Y-119380000D03*
X104140000Y-121920000D03*
X104140000Y-124460000D03*
%TD*%
%TO.C,REF\u002A\u002A*%
X162560000Y-58420000D03*
X162560000Y-60960000D03*
X162560000Y-63500000D03*
X162560000Y-66040000D03*
X162560000Y-68580000D03*
%TD*%
%TO.C,REF\u002A\u002A*%
X91440000Y-73710000D03*
X93980000Y-73710000D03*
X96520000Y-73710000D03*
X99060000Y-73710000D03*
X101600000Y-73710000D03*
%TD*%
D12*
%TO.C,H2*%
X229000000Y-57500000D03*
%TD*%
D11*
%TO.C,REF\u002A\u002A*%
X83820000Y-142240000D03*
X86360000Y-142240000D03*
X88900000Y-142240000D03*
X91440000Y-142240000D03*
X93980000Y-142240000D03*
%TD*%
%TO.C,REF\u002A\u002A*%
X134620000Y-114300000D03*
X134620000Y-116840000D03*
X134620000Y-119380000D03*
X134620000Y-121920000D03*
X134620000Y-124460000D03*
%TD*%
%TO.C,REF\u002A\u002A*%
X109220000Y-96520000D03*
X109220000Y-99060000D03*
X109220000Y-101600000D03*
X109220000Y-104140000D03*
X109220000Y-106680000D03*
%TD*%
%TO.C,REF\u002A\u002A*%
X177800000Y-96520000D03*
X177800000Y-99060000D03*
X177800000Y-101600000D03*
X177800000Y-104140000D03*
X177800000Y-106680000D03*
%TD*%
%TO.C,REF\u002A\u002A*%
X121920000Y-88900000D03*
X124460000Y-88900000D03*
X127000000Y-88900000D03*
X129540000Y-88900000D03*
X132080000Y-88900000D03*
%TD*%
%TO.C,REF\u002A\u002A*%
X160020000Y-132080000D03*
X162560000Y-132080000D03*
X165100000Y-132080000D03*
X167640000Y-132080000D03*
X170180000Y-132080000D03*
%TD*%
%TO.C,REF\u002A\u002A*%
X134620000Y-139700000D03*
X137160000Y-139700000D03*
X139700000Y-139700000D03*
X142240000Y-139700000D03*
X144780000Y-139700000D03*
%TD*%
%TO.C,REF\u002A\u002A*%
X96520000Y-83820000D03*
X99060000Y-83820000D03*
X101600000Y-83820000D03*
X104140000Y-83820000D03*
X106680000Y-83820000D03*
%TD*%
%TO.C,REF\u002A\u002A*%
X195580000Y-114300000D03*
X195580000Y-116840000D03*
X195580000Y-119380000D03*
X195580000Y-121920000D03*
X195580000Y-124460000D03*
%TD*%
%TO.C,REF\u002A\u002A*%
X147320000Y-81280000D03*
X149860000Y-81280000D03*
X152400000Y-81280000D03*
X154940000Y-81280000D03*
X157480000Y-81280000D03*
%TD*%
%TO.C,REF\u002A\u002A*%
X149860000Y-114300000D03*
X149860000Y-116840000D03*
X149860000Y-119380000D03*
X149860000Y-121920000D03*
X149860000Y-124460000D03*
%TD*%
%TO.C,REF\u002A\u002A*%
X210820000Y-83820000D03*
X213360000Y-83820000D03*
X215900000Y-83820000D03*
X218440000Y-83820000D03*
X220980000Y-83820000D03*
%TD*%
%TO.C,REF\u002A\u002A*%
X185420000Y-134620000D03*
X187960000Y-134620000D03*
X190500000Y-134620000D03*
X193040000Y-134620000D03*
X195580000Y-134620000D03*
%TD*%
%TO.C,REF\u002A\u002A*%
X111760000Y-96520000D03*
X111760000Y-99060000D03*
X111760000Y-101600000D03*
X111760000Y-104140000D03*
X111760000Y-106680000D03*
%TD*%
%TO.C,REF\u002A\u002A*%
X142240000Y-73710000D03*
X144780000Y-73710000D03*
X147320000Y-73710000D03*
X149860000Y-73710000D03*
X152400000Y-73710000D03*
%TD*%
%TO.C,REF\u002A\u002A*%
X96520000Y-137160000D03*
X99060000Y-137160000D03*
X101600000Y-137160000D03*
X104140000Y-137160000D03*
X106680000Y-137160000D03*
%TD*%
%TO.C,REF\u002A\u002A*%
X185420000Y-132130000D03*
X187960000Y-132130000D03*
X190500000Y-132130000D03*
X193040000Y-132130000D03*
X195580000Y-132130000D03*
%TD*%
%TO.C,REF\u002A\u002A*%
X205740000Y-114300000D03*
X205740000Y-116840000D03*
X205740000Y-119380000D03*
X205740000Y-121920000D03*
X205740000Y-124460000D03*
%TD*%
%TO.C,REF\u002A\u002A*%
X167640000Y-73710000D03*
X170180000Y-73710000D03*
X172720000Y-73710000D03*
X175260000Y-73710000D03*
X177800000Y-73710000D03*
%TD*%
%TO.C,REF\u002A\u002A*%
X137160000Y-114300000D03*
X137160000Y-116840000D03*
X137160000Y-119380000D03*
X137160000Y-121920000D03*
X137160000Y-124460000D03*
%TD*%
%TO.C,REF\u002A\u002A*%
X119380000Y-96520000D03*
X119380000Y-99060000D03*
X119380000Y-101600000D03*
X119380000Y-104140000D03*
X119380000Y-106680000D03*
%TD*%
%TO.C,REF\u002A\u002A*%
X182880000Y-114300000D03*
X182880000Y-116840000D03*
X182880000Y-119380000D03*
X182880000Y-121920000D03*
X182880000Y-124460000D03*
%TD*%
%TO.C,REF\u002A\u002A*%
X198120000Y-88900000D03*
X200660000Y-88900000D03*
X203200000Y-88900000D03*
X205740000Y-88900000D03*
X208280000Y-88900000D03*
%TD*%
%TO.C,REF\u002A\u002A*%
X83820000Y-139700000D03*
X86360000Y-139700000D03*
X88900000Y-139700000D03*
X91440000Y-139700000D03*
X93980000Y-139700000D03*
%TD*%
%TO.C,REF\u002A\u002A*%
X198120000Y-134620000D03*
X200660000Y-134620000D03*
X203200000Y-134620000D03*
X205740000Y-134620000D03*
X208280000Y-134620000D03*
%TD*%
%TO.C,REF\u002A\u002A*%
X73660000Y-96520000D03*
X73660000Y-99060000D03*
X73660000Y-101600000D03*
X73660000Y-104140000D03*
X73660000Y-106680000D03*
%TD*%
%TO.C,REF\u002A\u002A*%
X152400000Y-96520000D03*
X152400000Y-99060000D03*
X152400000Y-101600000D03*
X152400000Y-104140000D03*
X152400000Y-106680000D03*
%TD*%
%TO.C,REF\u002A\u002A*%
X200660000Y-114300000D03*
X200660000Y-116840000D03*
X200660000Y-119380000D03*
X200660000Y-121920000D03*
X200660000Y-124460000D03*
%TD*%
%TO.C,REF\u002A\u002A*%
X73660000Y-114300000D03*
X73660000Y-116840000D03*
X73660000Y-119380000D03*
X73660000Y-121920000D03*
X73660000Y-124460000D03*
%TD*%
%TO.C,REF\u002A\u002A*%
X109220000Y-83820000D03*
X111760000Y-83820000D03*
X114300000Y-83820000D03*
X116840000Y-83820000D03*
X119380000Y-83820000D03*
%TD*%
%TO.C,REF\u002A\u002A*%
X109220000Y-132130000D03*
X111760000Y-132130000D03*
X114300000Y-132130000D03*
X116840000Y-132130000D03*
X119380000Y-132130000D03*
%TD*%
%TO.C,REF\u002A\u002A*%
X144780000Y-114300000D03*
X144780000Y-116840000D03*
X144780000Y-119380000D03*
X144780000Y-121920000D03*
X144780000Y-124460000D03*
%TD*%
%TO.C,REF\u002A\u002A*%
X210820000Y-139700000D03*
X213360000Y-139700000D03*
X215900000Y-139700000D03*
X218440000Y-139700000D03*
X220980000Y-139700000D03*
%TD*%
%TO.C,REF\u002A\u002A*%
X121920000Y-78790000D03*
X124460000Y-78790000D03*
X127000000Y-78790000D03*
X129540000Y-78790000D03*
X132080000Y-78790000D03*
%TD*%
%TO.C,REF\u002A\u002A*%
X152400000Y-114300000D03*
X152400000Y-116840000D03*
X152400000Y-119380000D03*
X152400000Y-121920000D03*
X152400000Y-124460000D03*
%TD*%
%TO.C,REF\u002A\u002A*%
X210820000Y-137160000D03*
X213360000Y-137160000D03*
X215900000Y-137160000D03*
X218440000Y-137160000D03*
X220980000Y-137160000D03*
%TD*%
%TO.C,REF\u002A\u002A*%
X101600000Y-114300000D03*
X101600000Y-116840000D03*
X101600000Y-119380000D03*
X101600000Y-121920000D03*
X101600000Y-124460000D03*
%TD*%
%TO.C,REF\u002A\u002A*%
X106680000Y-114300000D03*
X106680000Y-116840000D03*
X106680000Y-119380000D03*
X106680000Y-121920000D03*
X106680000Y-124460000D03*
%TD*%
%TO.C,REF\u002A\u002A*%
X121920000Y-81280000D03*
X124460000Y-81280000D03*
X127000000Y-81280000D03*
X129540000Y-81280000D03*
X132080000Y-81280000D03*
%TD*%
%TO.C,REF\u002A\u002A*%
X71120000Y-96520000D03*
X71120000Y-99060000D03*
X71120000Y-101600000D03*
X71120000Y-104140000D03*
X71120000Y-106680000D03*
%TD*%
%TO.C,REF\u002A\u002A*%
X142240000Y-114300000D03*
X142240000Y-116840000D03*
X142240000Y-119380000D03*
X142240000Y-121920000D03*
X142240000Y-124460000D03*
%TD*%
%TO.C,REF\u002A\u002A*%
X121920000Y-83820000D03*
X124460000Y-83820000D03*
X127000000Y-83820000D03*
X129540000Y-83820000D03*
X132080000Y-83820000D03*
%TD*%
%TO.C,REF\u002A\u002A*%
X109220000Y-137160000D03*
X111760000Y-137160000D03*
X114300000Y-137160000D03*
X116840000Y-137160000D03*
X119380000Y-137160000D03*
%TD*%
%TO.C,REF\u002A\u002A*%
X116840000Y-114300000D03*
X116840000Y-116840000D03*
X116840000Y-119380000D03*
X116840000Y-121920000D03*
X116840000Y-124460000D03*
%TD*%
%TO.C,REF\u002A\u002A*%
X71120000Y-137160000D03*
X73660000Y-137160000D03*
X76200000Y-137160000D03*
X78740000Y-137160000D03*
X81280000Y-137160000D03*
%TD*%
%TO.C,REF\u002A\u002A*%
X83820000Y-81280000D03*
X86360000Y-81280000D03*
X88900000Y-81280000D03*
X91440000Y-81280000D03*
X93980000Y-81280000D03*
%TD*%
%TO.C,REF\u002A\u002A*%
X71120000Y-139700000D03*
X73660000Y-139700000D03*
X76200000Y-139700000D03*
X78740000Y-139700000D03*
X81280000Y-139700000D03*
%TD*%
%TO.C,REF\u002A\u002A*%
X81280000Y-96520000D03*
X81280000Y-99060000D03*
X81280000Y-101600000D03*
X81280000Y-104140000D03*
X81280000Y-106680000D03*
%TD*%
%TO.C,REF\u002A\u002A*%
X121920000Y-86360000D03*
X124460000Y-86360000D03*
X127000000Y-86360000D03*
X129540000Y-86360000D03*
X132080000Y-86360000D03*
%TD*%
%TO.C,REF\u002A\u002A*%
X172720000Y-137110000D03*
X175260000Y-137110000D03*
X177800000Y-137110000D03*
X180340000Y-137110000D03*
X182880000Y-137110000D03*
%TD*%
%TO.C,REF\u002A\u002A*%
X116840000Y-58420000D03*
X116840000Y-60960000D03*
X116840000Y-63500000D03*
X116840000Y-66040000D03*
X116840000Y-68580000D03*
%TD*%
%TO.C,REF\u002A\u002A*%
X220980000Y-96520000D03*
X220980000Y-99060000D03*
X220980000Y-101600000D03*
X220980000Y-104140000D03*
X220980000Y-106680000D03*
%TD*%
D13*
%TO.C,J3*%
X202000000Y-68500000D03*
%TD*%
D11*
%TO.C,REF\u002A\u002A*%
X193040000Y-96520000D03*
X193040000Y-99060000D03*
X193040000Y-101600000D03*
X193040000Y-104140000D03*
X193040000Y-106680000D03*
%TD*%
%TO.C,REF\u002A\u002A*%
X198120000Y-81280000D03*
X200660000Y-81280000D03*
X203200000Y-81280000D03*
X205740000Y-81280000D03*
X208280000Y-81280000D03*
%TD*%
%TO.C,REF\u002A\u002A*%
X193040000Y-114300000D03*
X193040000Y-116840000D03*
X193040000Y-119380000D03*
X193040000Y-121920000D03*
X193040000Y-124460000D03*
%TD*%
%TO.C,REF\u002A\u002A*%
X162560000Y-114300000D03*
X162560000Y-116840000D03*
X162560000Y-119380000D03*
X162560000Y-121920000D03*
X162560000Y-124460000D03*
%TD*%
%TO.C,REF\u002A\u002A*%
X210820000Y-96520000D03*
X210820000Y-99060000D03*
X210820000Y-101600000D03*
X210820000Y-104140000D03*
X210820000Y-106680000D03*
%TD*%
%TO.C,REF\u002A\u002A*%
X147320000Y-88900000D03*
X149860000Y-88900000D03*
X152400000Y-88900000D03*
X154940000Y-88900000D03*
X157480000Y-88900000D03*
%TD*%
%TO.C,REF\u002A\u002A*%
X210820000Y-78790000D03*
X213360000Y-78790000D03*
X215900000Y-78790000D03*
X218440000Y-78790000D03*
X220980000Y-78790000D03*
%TD*%
%TO.C,REF\u002A\u002A*%
X210820000Y-132130000D03*
X213360000Y-132130000D03*
X215900000Y-132130000D03*
X218440000Y-132130000D03*
X220980000Y-132130000D03*
%TD*%
%TO.C,REF\u002A\u002A*%
X172720000Y-83770000D03*
X175260000Y-83770000D03*
X177800000Y-83770000D03*
X180340000Y-83770000D03*
X182880000Y-83770000D03*
%TD*%
%TO.C,REF\u002A\u002A*%
X160020000Y-78740000D03*
X162560000Y-78740000D03*
X165100000Y-78740000D03*
X167640000Y-78740000D03*
X170180000Y-78740000D03*
%TD*%
D12*
%TO.C,H1*%
X62500000Y-57500000D03*
%TD*%
D11*
%TO.C,REF\u002A\u002A*%
X121920000Y-114300000D03*
X121920000Y-116840000D03*
X121920000Y-119380000D03*
X121920000Y-121920000D03*
X121920000Y-124460000D03*
%TD*%
%TO.C,REF\u002A\u002A*%
X129540000Y-96520000D03*
X129540000Y-99060000D03*
X129540000Y-101600000D03*
X129540000Y-104140000D03*
X129540000Y-106680000D03*
%TD*%
%TO.C,REF\u002A\u002A*%
X109220000Y-88900000D03*
X111760000Y-88900000D03*
X114300000Y-88900000D03*
X116840000Y-88900000D03*
X119380000Y-88900000D03*
%TD*%
D13*
%TO.C,J4*%
X209750000Y-68500000D03*
D14*
X209750000Y-71040000D03*
%TD*%
D11*
%TO.C,REF\u002A\u002A*%
X185420000Y-114300000D03*
X185420000Y-116840000D03*
X185420000Y-119380000D03*
X185420000Y-121920000D03*
X185420000Y-124460000D03*
%TD*%
%TO.C,REF\u002A\u002A*%
X160020000Y-88850000D03*
X162560000Y-88850000D03*
X165100000Y-88850000D03*
X167640000Y-88850000D03*
X170180000Y-88850000D03*
%TD*%
%TO.C,REF\u002A\u002A*%
X109220000Y-78790000D03*
X111760000Y-78790000D03*
X114300000Y-78790000D03*
X116840000Y-78790000D03*
X119380000Y-78790000D03*
%TD*%
%TO.C,REF\u002A\u002A*%
X172720000Y-132080000D03*
X175260000Y-132080000D03*
X177800000Y-132080000D03*
X180340000Y-132080000D03*
X182880000Y-132080000D03*
%TD*%
%TO.C,REF\u002A\u002A*%
X134620000Y-132130000D03*
X137160000Y-132130000D03*
X139700000Y-132130000D03*
X142240000Y-132130000D03*
X144780000Y-132130000D03*
%TD*%
%TO.C,REF\u002A\u002A*%
X96520000Y-139700000D03*
X99060000Y-139700000D03*
X101600000Y-139700000D03*
X104140000Y-139700000D03*
X106680000Y-139700000D03*
%TD*%
%TO.C,REF\u002A\u002A*%
X185420000Y-137160000D03*
X187960000Y-137160000D03*
X190500000Y-137160000D03*
X193040000Y-137160000D03*
X195580000Y-137160000D03*
%TD*%
%TO.C,REF\u002A\u002A*%
X154940000Y-114300000D03*
X154940000Y-116840000D03*
X154940000Y-119380000D03*
X154940000Y-121920000D03*
X154940000Y-124460000D03*
%TD*%
%TO.C,REF\u002A\u002A*%
X215900000Y-96520000D03*
X215900000Y-99060000D03*
X215900000Y-101600000D03*
X215900000Y-104140000D03*
X215900000Y-106680000D03*
%TD*%
%TO.C,REF\u002A\u002A*%
X180340000Y-114300000D03*
X180340000Y-116840000D03*
X180340000Y-119380000D03*
X180340000Y-121920000D03*
X180340000Y-124460000D03*
%TD*%
%TO.C,REF\u002A\u002A*%
X172720000Y-78740000D03*
X175260000Y-78740000D03*
X177800000Y-78740000D03*
X180340000Y-78740000D03*
X182880000Y-78740000D03*
%TD*%
%TO.C,REF\u002A\u002A*%
X198120000Y-83820000D03*
X200660000Y-83820000D03*
X203200000Y-83820000D03*
X205740000Y-83820000D03*
X208280000Y-83820000D03*
%TD*%
%TO.C,REF\u002A\u002A*%
X121920000Y-96520000D03*
X121920000Y-99060000D03*
X121920000Y-101600000D03*
X121920000Y-104140000D03*
X121920000Y-106680000D03*
%TD*%
%TO.C,REF\u002A\u002A*%
X109220000Y-134620000D03*
X111760000Y-134620000D03*
X114300000Y-134620000D03*
X116840000Y-134620000D03*
X119380000Y-134620000D03*
%TD*%
%TO.C,REF\u002A\u002A*%
X187960000Y-114300000D03*
X187960000Y-116840000D03*
X187960000Y-119380000D03*
X187960000Y-121920000D03*
X187960000Y-124460000D03*
%TD*%
%TO.C,REF\u002A\u002A*%
X147320000Y-83820000D03*
X149860000Y-83820000D03*
X152400000Y-83820000D03*
X154940000Y-83820000D03*
X157480000Y-83820000D03*
%TD*%
%TO.C,REF\u002A\u002A*%
X104140000Y-58420000D03*
X104140000Y-60960000D03*
X104140000Y-63500000D03*
X104140000Y-66040000D03*
X104140000Y-68580000D03*
%TD*%
%TO.C,REF\u002A\u002A*%
X175260000Y-114300000D03*
X175260000Y-116840000D03*
X175260000Y-119380000D03*
X175260000Y-121920000D03*
X175260000Y-124460000D03*
%TD*%
%TO.C,REF\u002A\u002A*%
X99060000Y-114300000D03*
X99060000Y-116840000D03*
X99060000Y-119380000D03*
X99060000Y-121920000D03*
X99060000Y-124460000D03*
%TD*%
%TO.C,REF\u002A\u002A*%
X210820000Y-86360000D03*
X213360000Y-86360000D03*
X215900000Y-86360000D03*
X218440000Y-86360000D03*
X220980000Y-86360000D03*
%TD*%
%TO.C,REF\u002A\u002A*%
X142240000Y-96520000D03*
X142240000Y-99060000D03*
X142240000Y-101600000D03*
X142240000Y-104140000D03*
X142240000Y-106680000D03*
%TD*%
%TO.C,REF\u002A\u002A*%
X198120000Y-114300000D03*
X198120000Y-116840000D03*
X198120000Y-119380000D03*
X198120000Y-121920000D03*
X198120000Y-124460000D03*
%TD*%
%TO.C,REF\u002A\u002A*%
X198120000Y-142240000D03*
X200660000Y-142240000D03*
X203200000Y-142240000D03*
X205740000Y-142240000D03*
X208280000Y-142240000D03*
%TD*%
%TO.C,REF\u002A\u002A*%
X96520000Y-96520000D03*
X96520000Y-99060000D03*
X96520000Y-101600000D03*
X96520000Y-104140000D03*
X96520000Y-106680000D03*
%TD*%
%TO.C,REF\u002A\u002A*%
X160020000Y-81230000D03*
X162560000Y-81230000D03*
X165100000Y-81230000D03*
X167640000Y-81230000D03*
X170180000Y-81230000D03*
%TD*%
%TO.C,REF\u002A\u002A*%
X172720000Y-88850000D03*
X175260000Y-88850000D03*
X177800000Y-88850000D03*
X180340000Y-88850000D03*
X182880000Y-88850000D03*
%TD*%
D13*
%TO.C,J5*%
X83000000Y-56750000D03*
D14*
X85540000Y-56750000D03*
X88080000Y-56750000D03*
X90620000Y-56750000D03*
%TD*%
D11*
%TO.C,REF\u002A\u002A*%
X172720000Y-86310000D03*
X175260000Y-86310000D03*
X177800000Y-86310000D03*
X180340000Y-86310000D03*
X182880000Y-86310000D03*
%TD*%
%TO.C,REF\u002A\u002A*%
X170180000Y-96520000D03*
X170180000Y-99060000D03*
X170180000Y-101600000D03*
X170180000Y-104140000D03*
X170180000Y-106680000D03*
%TD*%
%TO.C,REF\u002A\u002A*%
X121920000Y-132130000D03*
X124460000Y-132130000D03*
X127000000Y-132130000D03*
X129540000Y-132130000D03*
X132080000Y-132130000D03*
%TD*%
%TO.C,REF\u002A\u002A*%
X78740000Y-114300000D03*
X78740000Y-116840000D03*
X78740000Y-119380000D03*
X78740000Y-121920000D03*
X78740000Y-124460000D03*
%TD*%
%TO.C,REF\u002A\u002A*%
X83820000Y-132130000D03*
X86360000Y-132130000D03*
X88900000Y-132130000D03*
X91440000Y-132130000D03*
X93980000Y-132130000D03*
%TD*%
%TO.C,REF\u002A\u002A*%
X93980000Y-96520000D03*
X93980000Y-99060000D03*
X93980000Y-101600000D03*
X93980000Y-104140000D03*
X93980000Y-106680000D03*
%TD*%
%TO.C,REF\u002A\u002A*%
X198120000Y-96520000D03*
X198120000Y-99060000D03*
X198120000Y-101600000D03*
X198120000Y-104140000D03*
X198120000Y-106680000D03*
%TD*%
%TO.C,REF\u002A\u002A*%
X106680000Y-58420000D03*
X106680000Y-60960000D03*
X106680000Y-63500000D03*
X106680000Y-66040000D03*
X106680000Y-68580000D03*
%TD*%
%TO.C,REF\u002A\u002A*%
X185420000Y-139700000D03*
X187960000Y-139700000D03*
X190500000Y-139700000D03*
X193040000Y-139700000D03*
X195580000Y-139700000D03*
%TD*%
%TO.C,REF\u002A\u002A*%
X139700000Y-114300000D03*
X139700000Y-116840000D03*
X139700000Y-119380000D03*
X139700000Y-121920000D03*
X139700000Y-124460000D03*
%TD*%
%TO.C,REF\u002A\u002A*%
X187960000Y-96520000D03*
X187960000Y-99060000D03*
X187960000Y-101600000D03*
X187960000Y-104140000D03*
X187960000Y-106680000D03*
%TD*%
%TO.C,REF\u002A\u002A*%
X111760000Y-114300000D03*
X111760000Y-116840000D03*
X111760000Y-119380000D03*
X111760000Y-121920000D03*
X111760000Y-124460000D03*
%TD*%
%TO.C,REF\u002A\u002A*%
X210820000Y-142240000D03*
X213360000Y-142240000D03*
X215900000Y-142240000D03*
X218440000Y-142240000D03*
X220980000Y-142240000D03*
%TD*%
%TO.C,REF\u002A\u002A*%
X96520000Y-86360000D03*
X99060000Y-86360000D03*
X101600000Y-86360000D03*
X104140000Y-86360000D03*
X106680000Y-86360000D03*
%TD*%
%TO.C,REF\u002A\u002A*%
X180340000Y-96520000D03*
X180340000Y-99060000D03*
X180340000Y-101600000D03*
X180340000Y-104140000D03*
X180340000Y-106680000D03*
%TD*%
%TO.C,REF\u002A\u002A*%
X83820000Y-96520000D03*
X83820000Y-99060000D03*
X83820000Y-101600000D03*
X83820000Y-104140000D03*
X83820000Y-106680000D03*
%TD*%
%TO.C,REF\u002A\u002A*%
X187960000Y-58420000D03*
X187960000Y-60960000D03*
X187960000Y-63500000D03*
X187960000Y-66040000D03*
X187960000Y-68580000D03*
%TD*%
%TO.C,REF\u002A\u002A*%
X198120000Y-139700000D03*
X200660000Y-139700000D03*
X203200000Y-139700000D03*
X205740000Y-139700000D03*
X208280000Y-139700000D03*
%TD*%
%TO.C,REF\u002A\u002A*%
X134620000Y-81280000D03*
X137160000Y-81280000D03*
X139700000Y-81280000D03*
X142240000Y-81280000D03*
X144780000Y-81280000D03*
%TD*%
%TO.C,REF\u002A\u002A*%
X160020000Y-114300000D03*
X160020000Y-116840000D03*
X160020000Y-119380000D03*
X160020000Y-121920000D03*
X160020000Y-124460000D03*
%TD*%
%TO.C,REF\u002A\u002A*%
X203200000Y-96520000D03*
X203200000Y-99060000D03*
X203200000Y-101600000D03*
X203200000Y-104140000D03*
X203200000Y-106680000D03*
%TD*%
%TO.C,REF\u002A\u002A*%
X83820000Y-88900000D03*
X86360000Y-88900000D03*
X88900000Y-88900000D03*
X91440000Y-88900000D03*
X93980000Y-88900000D03*
%TD*%
%TO.C,REF\u002A\u002A*%
X170180000Y-114300000D03*
X170180000Y-116840000D03*
X170180000Y-119380000D03*
X170180000Y-121920000D03*
X170180000Y-124460000D03*
%TD*%
%TO.C,REF\u002A\u002A*%
X129540000Y-73710000D03*
X132080000Y-73710000D03*
X134620000Y-73710000D03*
X137160000Y-73710000D03*
X139700000Y-73710000D03*
%TD*%
%TO.C,REF\u002A\u002A*%
X88900000Y-114300000D03*
X88900000Y-116840000D03*
X88900000Y-119380000D03*
X88900000Y-121920000D03*
X88900000Y-124460000D03*
%TD*%
%TO.C,REF\u002A\u002A*%
X213360000Y-114300000D03*
X213360000Y-116840000D03*
X213360000Y-119380000D03*
X213360000Y-121920000D03*
X213360000Y-124460000D03*
%TD*%
%TO.C,REF\u002A\u002A*%
X185420000Y-96520000D03*
X185420000Y-99060000D03*
X185420000Y-101600000D03*
X185420000Y-104140000D03*
X185420000Y-106680000D03*
%TD*%
%TO.C,REF\u002A\u002A*%
X180340000Y-73660000D03*
X182880000Y-73660000D03*
X185420000Y-73660000D03*
X187960000Y-73660000D03*
X190500000Y-73660000D03*
%TD*%
%TO.C,REF\u002A\u002A*%
X198120000Y-86360000D03*
X200660000Y-86360000D03*
X203200000Y-86360000D03*
X205740000Y-86360000D03*
X208280000Y-86360000D03*
%TD*%
%TO.C,REF\u002A\u002A*%
X172720000Y-81230000D03*
X175260000Y-81230000D03*
X177800000Y-81230000D03*
X180340000Y-81230000D03*
X182880000Y-81230000D03*
%TD*%
%TO.C,REF\u002A\u002A*%
X114300000Y-114300000D03*
X114300000Y-116840000D03*
X114300000Y-119380000D03*
X114300000Y-121920000D03*
X114300000Y-124460000D03*
%TD*%
%TO.C,REF\u002A\u002A*%
X154940000Y-73710000D03*
X157480000Y-73710000D03*
X160020000Y-73710000D03*
X162560000Y-73710000D03*
X165100000Y-73710000D03*
%TD*%
%TO.C,REF\u002A\u002A*%
X190500000Y-96520000D03*
X190500000Y-99060000D03*
X190500000Y-101600000D03*
X190500000Y-104140000D03*
X190500000Y-106680000D03*
%TD*%
%TO.C,REF\u002A\u002A*%
X149860000Y-96520000D03*
X149860000Y-99060000D03*
X149860000Y-101600000D03*
X149860000Y-104140000D03*
X149860000Y-106680000D03*
%TD*%
%TO.C,REF\u002A\u002A*%
X175260000Y-58420000D03*
X175260000Y-60960000D03*
X175260000Y-63500000D03*
X175260000Y-66040000D03*
X175260000Y-68580000D03*
%TD*%
%TO.C,REF\u002A\u002A*%
X165100000Y-114300000D03*
X165100000Y-116840000D03*
X165100000Y-119380000D03*
X165100000Y-121920000D03*
X165100000Y-124460000D03*
%TD*%
%TO.C,REF\u002A\u002A*%
X198120000Y-78790000D03*
X200660000Y-78790000D03*
X203200000Y-78790000D03*
X205740000Y-78790000D03*
X208280000Y-78790000D03*
%TD*%
%TO.C,REF\u002A\u002A*%
X132080000Y-114300000D03*
X132080000Y-116840000D03*
X132080000Y-119380000D03*
X132080000Y-121920000D03*
X132080000Y-124460000D03*
%TD*%
%TO.C,REF\u002A\u002A*%
X157480000Y-96520000D03*
X157480000Y-99060000D03*
X157480000Y-101600000D03*
X157480000Y-104140000D03*
X157480000Y-106680000D03*
%TD*%
%TO.C,REF\u002A\u002A*%
X185420000Y-142240000D03*
X187960000Y-142240000D03*
X190500000Y-142240000D03*
X193040000Y-142240000D03*
X195580000Y-142240000D03*
%TD*%
%TO.C,REF\u002A\u002A*%
X96520000Y-134620000D03*
X99060000Y-134620000D03*
X101600000Y-134620000D03*
X104140000Y-134620000D03*
X106680000Y-134620000D03*
%TD*%
%TO.C,REF\u002A\u002A*%
X71120000Y-88900000D03*
X73660000Y-88900000D03*
X76200000Y-88900000D03*
X78740000Y-88900000D03*
X81280000Y-88900000D03*
%TD*%
%TO.C,REF\u002A\u002A*%
X71120000Y-78790000D03*
X73660000Y-78790000D03*
X76200000Y-78790000D03*
X78740000Y-78790000D03*
X81280000Y-78790000D03*
%TD*%
%TO.C,REF\u002A\u002A*%
X160020000Y-96520000D03*
X160020000Y-99060000D03*
X160020000Y-101600000D03*
X160020000Y-104140000D03*
X160020000Y-106680000D03*
%TD*%
%TO.C,REF\u002A\u002A*%
X167640000Y-96520000D03*
X167640000Y-99060000D03*
X167640000Y-101600000D03*
X167640000Y-104140000D03*
X167640000Y-106680000D03*
%TD*%
%TO.C,REF\u002A\u002A*%
X96520000Y-132130000D03*
X99060000Y-132130000D03*
X101600000Y-132130000D03*
X104140000Y-132130000D03*
X106680000Y-132130000D03*
%TD*%
%TO.C,REF\u002A\u002A*%
X96520000Y-88900000D03*
X99060000Y-88900000D03*
X101600000Y-88900000D03*
X104140000Y-88900000D03*
X106680000Y-88900000D03*
%TD*%
%TO.C,REF\u002A\u002A*%
X210820000Y-114300000D03*
X210820000Y-116840000D03*
X210820000Y-119380000D03*
X210820000Y-121920000D03*
X210820000Y-124460000D03*
%TD*%
%TO.C,REF\u002A\u002A*%
X91440000Y-96520000D03*
X91440000Y-99060000D03*
X91440000Y-101600000D03*
X91440000Y-104140000D03*
X91440000Y-106680000D03*
%TD*%
%TO.C,REF\u002A\u002A*%
X208280000Y-96520000D03*
X208280000Y-99060000D03*
X208280000Y-101600000D03*
X208280000Y-104140000D03*
X208280000Y-106680000D03*
%TD*%
%TO.C,REF\u002A\u002A*%
X139700000Y-96520000D03*
X139700000Y-99060000D03*
X139700000Y-101600000D03*
X139700000Y-104140000D03*
X139700000Y-106680000D03*
%TD*%
%TO.C,REF\u002A\u002A*%
X147320000Y-96520000D03*
X147320000Y-99060000D03*
X147320000Y-101600000D03*
X147320000Y-104140000D03*
X147320000Y-106680000D03*
%TD*%
%TO.C,REF\u002A\u002A*%
X190500000Y-114300000D03*
X190500000Y-116840000D03*
X190500000Y-119380000D03*
X190500000Y-121920000D03*
X190500000Y-124460000D03*
%TD*%
%TO.C,REF\u002A\u002A*%
X83820000Y-114300000D03*
X83820000Y-116840000D03*
X83820000Y-119380000D03*
X83820000Y-121920000D03*
X83820000Y-124460000D03*
%TD*%
%TO.C,REF\u002A\u002A*%
X134620000Y-134620000D03*
X137160000Y-134620000D03*
X139700000Y-134620000D03*
X142240000Y-134620000D03*
X144780000Y-134620000D03*
%TD*%
%TO.C,REF\u002A\u002A*%
X83820000Y-78790000D03*
X86360000Y-78790000D03*
X88900000Y-78790000D03*
X91440000Y-78790000D03*
X93980000Y-78790000D03*
%TD*%
%TO.C,REF\u002A\u002A*%
X198120000Y-137160000D03*
X200660000Y-137160000D03*
X203200000Y-137160000D03*
X205740000Y-137160000D03*
X208280000Y-137160000D03*
%TD*%
%TO.C,REF\u002A\u002A*%
X96520000Y-142240000D03*
X99060000Y-142240000D03*
X101600000Y-142240000D03*
X104140000Y-142240000D03*
X106680000Y-142240000D03*
%TD*%
%TO.C,REF\u002A\u002A*%
X96520000Y-78790000D03*
X99060000Y-78790000D03*
X101600000Y-78790000D03*
X104140000Y-78790000D03*
X106680000Y-78790000D03*
%TD*%
G36*
X125442121Y-57120002D02*
G01*
X125488614Y-57173658D01*
X125500000Y-57226000D01*
X125500000Y-69574000D01*
X125479998Y-69642121D01*
X125426342Y-69688614D01*
X125374000Y-69700000D01*
X118486000Y-69700000D01*
X118417879Y-69679998D01*
X118371386Y-69626342D01*
X118360000Y-69574000D01*
X118360000Y-57226000D01*
X118380002Y-57157879D01*
X118433658Y-57111386D01*
X118486000Y-57100000D01*
X125374000Y-57100000D01*
X125442121Y-57120002D01*
G37*
G36*
X115262121Y-57220002D02*
G01*
X115308614Y-57273658D01*
X115320000Y-57326000D01*
X115320000Y-69674000D01*
X115299998Y-69742121D01*
X115246342Y-69788614D01*
X115194000Y-69800000D01*
X108306000Y-69800000D01*
X108237879Y-69779998D01*
X108191386Y-69726342D01*
X108180000Y-69674000D01*
X108180000Y-57326000D01*
X108200002Y-57257879D01*
X108253658Y-57211386D01*
X108306000Y-57200000D01*
X115194000Y-57200000D01*
X115262121Y-57220002D01*
G37*
G36*
X173742121Y-57220002D02*
G01*
X173788614Y-57273658D01*
X173800000Y-57326000D01*
X173800000Y-69674000D01*
X173779998Y-69742121D01*
X173726342Y-69788614D01*
X173674000Y-69800000D01*
X166786000Y-69800000D01*
X166717879Y-69779998D01*
X166671386Y-69726342D01*
X166660000Y-69674000D01*
X166660000Y-57326000D01*
X166680002Y-57257879D01*
X166733658Y-57211386D01*
X166786000Y-57200000D01*
X173674000Y-57200000D01*
X173742121Y-57220002D01*
G37*
G36*
X226002121Y-91460002D02*
G01*
X226048614Y-91513658D01*
X226060000Y-91566000D01*
X226060000Y-93854000D01*
X226039998Y-93922121D01*
X225986342Y-93968614D01*
X225934000Y-93980000D01*
X64896000Y-93980000D01*
X64827879Y-93959998D01*
X64781386Y-93906342D01*
X64770000Y-93854000D01*
X64770000Y-91566000D01*
X64790002Y-91497879D01*
X64843658Y-91451386D01*
X64896000Y-91440000D01*
X225934000Y-91440000D01*
X226002121Y-91460002D01*
G37*
G36*
X226002121Y-109240002D02*
G01*
X226048614Y-109293658D01*
X226060000Y-109346000D01*
X226060000Y-111634000D01*
X226039998Y-111702121D01*
X225986342Y-111748614D01*
X225934000Y-111760000D01*
X64896000Y-111760000D01*
X64827879Y-111739998D01*
X64781386Y-111686342D01*
X64770000Y-111634000D01*
X64770000Y-109346000D01*
X64790002Y-109277879D01*
X64843658Y-109231386D01*
X64896000Y-109220000D01*
X225934000Y-109220000D01*
X226002121Y-109240002D01*
G37*
G36*
X226002121Y-127020002D02*
G01*
X226048614Y-127073658D01*
X226060000Y-127126000D01*
X226060000Y-129414000D01*
X226039998Y-129482121D01*
X225986342Y-129528614D01*
X225934000Y-129540000D01*
X64896000Y-129540000D01*
X64827879Y-129519998D01*
X64781386Y-129466342D01*
X64770000Y-129414000D01*
X64770000Y-127126000D01*
X64790002Y-127057879D01*
X64843658Y-127011386D01*
X64896000Y-127000000D01*
X225934000Y-127000000D01*
X226002121Y-127020002D01*
G37*
G36*
X159962121Y-57170002D02*
G01*
X160008614Y-57223658D01*
X160020000Y-57276000D01*
X160020000Y-69724000D01*
X159999998Y-69792121D01*
X159946342Y-69838614D01*
X159894000Y-69850000D01*
X132206000Y-69850000D01*
X132137879Y-69829998D01*
X132091386Y-69776342D01*
X132080000Y-69724000D01*
X132080000Y-57276000D01*
X132100002Y-57207879D01*
X132153658Y-57161386D01*
X132206000Y-57150000D01*
X159894000Y-57150000D01*
X159962121Y-57170002D01*
G37*
G36*
X183842121Y-57220002D02*
G01*
X183888614Y-57273658D01*
X183900000Y-57326000D01*
X183900000Y-69674000D01*
X183879998Y-69742121D01*
X183826342Y-69788614D01*
X183774000Y-69800000D01*
X176886000Y-69800000D01*
X176817879Y-69779998D01*
X176771386Y-69726342D01*
X176760000Y-69674000D01*
X176760000Y-57326000D01*
X176780002Y-57257879D01*
X176833658Y-57211386D01*
X176886000Y-57200000D01*
X183774000Y-57200000D01*
X183842121Y-57220002D01*
G37*
M02*
