M48
; DRILL file {KiCad 6.0.11-2627ca5db0~126~ubuntu22.04.1} date Sun 26 Mar 2023 13:10:53
; FORMAT={-:-/ absolute / inch / decimal}
; #@! TF.CreationDate,2023-03-26T13:10:53+01:00
; #@! TF.GenerationSoftware,Kicad,Pcbnew,6.0.11-2627ca5db0~126~ubuntu22.04.1
; #@! TF.FileFunction,Plated,1,2,PTH
FMAT,2
INCH
; #@! TA.AperFunction,Plated,PTH,ViaDrill
T1C0.0157
; #@! TA.AperFunction,Plated,PTH,ComponentDrill
T2C0.0300
; #@! TA.AperFunction,Plated,PTH,ComponentDrill
T3C0.0394
; #@! TA.AperFunction,Plated,PTH,ComponentDrill
T4C0.0512
; #@! TA.AperFunction,Plated,PTH,ComponentDrill
T5C0.1181
%
G90
G05
T1
X2.6Y-3.1
X2.6Y-3.2
X2.6Y-3.3
X2.6Y-3.4
X2.6Y-3.5
X2.6Y-3.8
X2.6Y-3.9
X2.6Y-4.0
X2.6Y-4.1
X2.6Y-4.2
X2.6Y-4.5
X2.6Y-4.6
X2.6Y-4.7
X2.6Y-4.8
X2.6Y-4.9
X2.6Y-5.2
X2.6Y-5.3
X2.6Y-5.4
X2.6Y-5.5
X2.6Y-5.6
X2.7Y-3.1
X2.7Y-3.2
X2.7Y-3.3
X2.7Y-3.4
X2.7Y-3.5
X2.7Y-3.8
X2.7Y-3.9
X2.7Y-4.0
X2.7Y-4.1
X2.7Y-4.2
X2.7Y-4.5
X2.7Y-4.6
X2.7Y-4.7
X2.7Y-4.8
X2.7Y-4.9
X2.7Y-5.2
X2.7Y-5.3
X2.7Y-5.4
X2.7Y-5.5
X2.7Y-5.6
X2.8Y-3.025
X2.8Y-3.575
X2.8Y-3.725
X2.8Y-4.275
X2.8Y-4.425
X2.8Y-4.975
X2.8Y-5.125
X2.8Y-5.675
X2.9Y-3.025
X2.9Y-3.575
X2.9Y-3.725
X2.9Y-4.275
X2.9Y-4.425
X2.9Y-4.975
X2.9Y-5.125
X2.9Y-5.675
X3.0Y-3.025
X3.0Y-3.575
X3.0Y-3.725
X3.0Y-4.275
X3.0Y-4.425
X3.0Y-4.975
X3.0Y-5.125
X3.0Y-5.675
X3.1Y-3.025
X3.1Y-3.575
X3.1Y-3.725
X3.1Y-4.275
X3.1Y-4.425
X3.1Y-4.975
X3.1Y-5.125
X3.1Y-5.675
X3.2Y-3.025
X3.2Y-3.575
X3.2Y-3.725
X3.2Y-4.275
X3.2Y-4.425
X3.2Y-4.975
X3.2Y-5.125
X3.2Y-5.675
X3.3Y-3.025
X3.3Y-3.575
X3.3Y-3.725
X3.3Y-4.275
X3.3Y-4.425
X3.3Y-4.975
X3.3Y-5.125
X3.3Y-5.675
X3.4Y-3.025
X3.4Y-3.575
X3.4Y-3.725
X3.4Y-4.275
X3.4Y-4.425
X3.4Y-4.975
X3.4Y-5.125
X3.4Y-5.675
X3.5Y-3.025
X3.5Y-3.575
X3.5Y-3.725
X3.5Y-4.275
X3.5Y-4.425
X3.5Y-4.975
X3.5Y-5.125
X3.5Y-5.675
X3.6Y-3.025
X3.6Y-3.575
X3.6Y-3.725
X3.6Y-4.275
X3.6Y-4.425
X3.6Y-4.975
X3.6Y-5.125
X3.6Y-5.675
X3.7Y-3.025
X3.7Y-3.575
X3.7Y-3.725
X3.7Y-4.275
X3.7Y-4.425
X3.7Y-4.975
X3.7Y-5.125
X3.7Y-5.675
X3.8Y-3.025
X3.8Y-3.575
X3.8Y-3.725
X3.8Y-4.275
X3.8Y-4.425
X3.8Y-4.975
X3.8Y-5.125
X3.8Y-5.675
X3.9Y-3.025
X3.9Y-3.575
X3.9Y-3.725
X3.9Y-4.275
X3.9Y-4.425
X3.9Y-4.975
X3.9Y-5.125
X3.9Y-5.675
X4.0Y-3.025
X4.0Y-3.575
X4.0Y-3.725
X4.0Y-4.275
X4.0Y-4.425
X4.0Y-4.975
X4.0Y-5.125
X4.0Y-5.675
X4.1Y-3.025
X4.1Y-3.575
X4.1Y-3.725
X4.1Y-4.275
X4.1Y-4.425
X4.1Y-4.975
X4.1Y-5.125
X4.1Y-5.675
X4.2Y-3.025
X4.2Y-3.575
X4.2Y-3.725
X4.2Y-4.275
X4.2Y-4.425
X4.2Y-4.975
X4.2Y-5.125
X4.2Y-5.675
X4.3Y-3.025
X4.3Y-3.575
X4.3Y-3.725
X4.3Y-4.275
X4.3Y-4.425
X4.3Y-4.975
X4.3Y-5.125
X4.3Y-5.675
X4.4Y-3.025
X4.4Y-3.575
X4.4Y-3.725
X4.4Y-4.275
X4.4Y-4.425
X4.4Y-4.975
X4.4Y-5.125
X4.4Y-5.675
X4.5Y-3.025
X4.5Y-3.575
X4.5Y-3.725
X4.5Y-4.275
X4.5Y-4.425
X4.5Y-4.975
X4.5Y-5.125
X4.5Y-5.675
X4.6Y-3.025
X4.6Y-3.575
X4.6Y-3.725
X4.6Y-4.275
X4.6Y-4.425
X4.6Y-4.975
X4.6Y-5.125
X4.6Y-5.675
X4.7Y-3.025
X4.7Y-3.575
X4.7Y-3.725
X4.7Y-4.275
X4.7Y-4.425
X4.7Y-4.975
X4.7Y-5.125
X4.7Y-5.675
X4.8Y-3.025
X4.8Y-3.575
X4.8Y-3.725
X4.8Y-4.275
X4.8Y-4.425
X4.8Y-4.975
X4.8Y-5.125
X4.8Y-5.675
X4.9Y-3.025
X4.9Y-3.575
X4.9Y-3.725
X4.9Y-4.275
X4.9Y-4.425
X4.9Y-4.975
X4.9Y-5.125
X4.9Y-5.675
X5.0Y-3.025
X5.0Y-3.575
X5.0Y-3.725
X5.0Y-4.275
X5.0Y-4.425
X5.0Y-4.975
X5.0Y-5.125
X5.0Y-5.675
X5.1Y-3.025
X5.1Y-3.575
X5.1Y-3.725
X5.1Y-4.275
X5.1Y-4.425
X5.1Y-4.975
X5.1Y-5.125
X5.1Y-5.675
X5.2Y-3.025
X5.2Y-3.575
X5.2Y-3.725
X5.2Y-4.275
X5.2Y-4.425
X5.2Y-4.975
X5.2Y-5.125
X5.2Y-5.675
X5.3Y-3.025
X5.3Y-3.575
X5.3Y-3.725
X5.3Y-4.275
X5.3Y-4.425
X5.3Y-4.975
X5.3Y-5.125
X5.3Y-5.675
X5.4Y-3.025
X5.4Y-3.575
X5.4Y-3.725
X5.4Y-4.275
X5.4Y-4.425
X5.4Y-4.975
X5.4Y-5.125
X5.4Y-5.675
X5.5Y-3.025
X5.5Y-3.575
X5.5Y-3.725
X5.5Y-4.275
X5.5Y-4.425
X5.5Y-4.975
X5.5Y-5.125
X5.5Y-5.675
X5.6Y-3.025
X5.6Y-3.575
X5.6Y-3.725
X5.6Y-4.275
X5.6Y-4.425
X5.6Y-4.975
X5.6Y-5.125
X5.6Y-5.675
X5.7Y-3.025
X5.7Y-3.575
X5.7Y-3.725
X5.7Y-4.275
X5.7Y-4.425
X5.7Y-4.975
X5.7Y-5.125
X5.7Y-5.675
X5.8Y-3.025
X5.8Y-3.575
X5.8Y-3.725
X5.8Y-4.275
X5.8Y-4.425
X5.8Y-4.975
X5.8Y-5.125
X5.8Y-5.675
X5.9Y-3.025
X5.9Y-3.575
X5.9Y-3.725
X5.9Y-4.275
X5.9Y-4.425
X5.9Y-4.975
X5.9Y-5.125
X5.9Y-5.675
X6.0Y-3.025
X6.0Y-3.575
X6.0Y-3.725
X6.0Y-4.275
X6.0Y-4.425
X6.0Y-4.975
X6.0Y-5.125
X6.0Y-5.675
X6.1Y-3.025
X6.1Y-3.575
X6.1Y-3.725
X6.1Y-4.275
X6.1Y-4.425
X6.1Y-4.975
X6.1Y-5.125
X6.1Y-5.675
X6.2Y-3.025
X6.2Y-3.575
X6.2Y-3.725
X6.2Y-4.275
X6.2Y-4.425
X6.2Y-4.975
X6.2Y-5.125
X6.2Y-5.675
X6.3Y-3.025
X6.3Y-3.575
X6.3Y-3.725
X6.3Y-4.275
X6.3Y-4.425
X6.3Y-4.975
X6.3Y-5.125
X6.3Y-5.675
X6.4Y-3.025
X6.4Y-3.575
X6.4Y-3.725
X6.4Y-4.275
X6.4Y-4.425
X6.4Y-4.975
X6.4Y-5.125
X6.4Y-5.675
X6.5Y-3.025
X6.5Y-3.575
X6.5Y-3.725
X6.5Y-4.275
X6.5Y-4.425
X6.5Y-4.975
X6.5Y-5.125
X6.5Y-5.675
X6.6Y-3.025
X6.6Y-3.575
X6.6Y-3.725
X6.6Y-4.275
X6.6Y-4.425
X6.6Y-4.975
X6.6Y-5.125
X6.6Y-5.675
X6.7Y-3.025
X6.7Y-3.575
X6.7Y-3.725
X6.7Y-4.275
X6.7Y-4.425
X6.7Y-4.975
X6.7Y-5.125
X6.7Y-5.675
X6.8Y-3.025
X6.8Y-3.575
X6.8Y-3.725
X6.8Y-4.275
X6.8Y-4.425
X6.8Y-4.975
X6.8Y-5.125
X6.8Y-5.675
X6.9Y-3.025
X6.9Y-3.575
X6.9Y-3.725
X6.9Y-4.275
X6.9Y-4.425
X6.9Y-4.975
X6.9Y-5.125
X6.9Y-5.675
X7.0Y-3.025
X7.0Y-3.575
X7.0Y-3.725
X7.0Y-4.275
X7.0Y-4.425
X7.0Y-4.975
X7.0Y-5.125
X7.0Y-5.675
X7.1Y-3.025
X7.1Y-3.575
X7.1Y-3.725
X7.1Y-4.275
X7.1Y-4.425
X7.1Y-4.975
X7.1Y-5.125
X7.1Y-5.675
X7.2Y-3.025
X7.2Y-3.575
X7.2Y-3.725
X7.2Y-4.275
X7.2Y-4.425
X7.2Y-4.975
X7.2Y-5.125
X7.2Y-5.675
X7.3Y-3.025
X7.3Y-3.575
X7.3Y-3.725
X7.3Y-4.275
X7.3Y-4.425
X7.3Y-4.975
X7.3Y-5.125
X7.3Y-5.675
X7.4Y-3.025
X7.4Y-3.575
X7.4Y-3.725
X7.4Y-4.275
X7.4Y-4.425
X7.4Y-4.975
X7.4Y-5.125
X7.4Y-5.675
X7.5Y-3.025
X7.5Y-3.575
X7.5Y-3.725
X7.5Y-4.275
X7.5Y-4.425
X7.5Y-4.975
X7.5Y-5.125
X7.5Y-5.675
X7.6Y-3.025
X7.6Y-3.575
X7.6Y-3.725
X7.6Y-4.275
X7.6Y-4.425
X7.6Y-4.975
X7.6Y-5.125
X7.6Y-5.675
X7.7Y-3.025
X7.7Y-3.575
X7.7Y-3.725
X7.7Y-4.275
X7.7Y-4.425
X7.7Y-4.975
X7.7Y-5.125
X7.7Y-5.675
X7.8Y-3.025
X7.8Y-3.575
X7.8Y-3.725
X7.8Y-4.275
X7.8Y-4.425
X7.8Y-4.975
X7.8Y-5.125
X7.8Y-5.675
X7.9Y-3.025
X7.9Y-3.575
X7.9Y-3.725
X7.9Y-4.275
X7.9Y-4.425
X7.9Y-4.975
X7.9Y-5.125
X7.9Y-5.675
X8.0Y-3.025
X8.0Y-3.575
X8.0Y-3.725
X8.0Y-4.275
X8.0Y-4.425
X8.0Y-4.975
X8.0Y-5.125
X8.0Y-5.675
X8.1Y-3.025
X8.1Y-3.575
X8.1Y-3.725
X8.1Y-4.275
X8.1Y-4.425
X8.1Y-4.975
X8.1Y-5.125
X8.1Y-5.675
X8.2Y-3.025
X8.2Y-3.575
X8.2Y-3.725
X8.2Y-4.275
X8.2Y-4.425
X8.2Y-4.975
X8.2Y-5.125
X8.2Y-5.675
X8.3Y-3.025
X8.3Y-3.575
X8.3Y-3.725
X8.3Y-4.275
X8.3Y-4.425
X8.3Y-4.975
X8.3Y-5.125
X8.3Y-5.675
X8.4Y-3.025
X8.4Y-3.575
X8.4Y-3.725
X8.4Y-4.275
X8.4Y-4.425
X8.4Y-4.975
X8.4Y-5.125
X8.4Y-5.675
X8.5Y-3.025
X8.5Y-3.575
X8.5Y-3.725
X8.5Y-4.275
X8.5Y-4.425
X8.5Y-4.975
X8.5Y-5.125
X8.5Y-5.675
X8.6Y-3.025
X8.6Y-3.575
X8.6Y-3.725
X8.6Y-4.275
X8.6Y-4.425
X8.6Y-4.975
X8.6Y-5.125
X8.6Y-5.675
X8.7Y-3.025
X8.7Y-3.575
X8.7Y-3.725
X8.7Y-4.275
X8.7Y-4.425
X8.7Y-4.975
X8.7Y-5.125
X8.7Y-5.675
X8.8Y-3.1
X8.8Y-3.2
X8.8Y-3.3
X8.8Y-3.4
X8.8Y-3.5
X8.8Y-3.8
X8.8Y-3.9
X8.8Y-4.0
X8.8Y-4.1
X8.8Y-4.2
X8.8Y-4.5
X8.8Y-4.6
X8.8Y-4.7
X8.8Y-4.8
X8.8Y-4.9
X8.8Y-5.2
X8.8Y-5.3
X8.8Y-5.4
X8.8Y-5.5
X8.8Y-5.6
X8.9Y-3.1
X8.9Y-3.2
X8.9Y-3.3
X8.9Y-3.4
X8.9Y-3.5
X8.9Y-3.8
X8.9Y-3.9
X8.9Y-4.0
X8.9Y-4.1
X8.9Y-4.2
X8.9Y-4.5
X8.9Y-4.6
X8.9Y-4.7
X8.9Y-4.8
X8.9Y-4.9
X8.9Y-5.2
X8.9Y-5.3
X8.9Y-5.4
X8.9Y-5.5
X8.9Y-5.6
T2
X2.8Y-3.102
X2.8Y-3.2
X2.8Y-3.3
X2.8Y-3.4
X2.8Y-3.5
X2.8Y-3.8
X2.8Y-3.9
X2.8Y-4.0
X2.8Y-4.1
X2.8Y-4.2
X2.8Y-4.5
X2.8Y-4.6
X2.8Y-4.7
X2.8Y-4.8
X2.8Y-4.9
X2.8Y-5.202
X2.8Y-5.3
X2.8Y-5.4
X2.8Y-5.5
X2.8Y-5.6
X2.9Y-3.102
X2.9Y-3.2
X2.9Y-3.3
X2.9Y-3.4
X2.9Y-3.5
X2.9Y-3.8
X2.9Y-3.9
X2.9Y-4.0
X2.9Y-4.1
X2.9Y-4.2
X2.9Y-4.5
X2.9Y-4.6
X2.9Y-4.7
X2.9Y-4.8
X2.9Y-4.9
X2.9Y-5.202
X2.9Y-5.3
X2.9Y-5.4
X2.9Y-5.5
X2.9Y-5.6
X3.0Y-3.102
X3.0Y-3.2
X3.0Y-3.3
X3.0Y-3.4
X3.0Y-3.5
X3.0Y-3.8
X3.0Y-3.9
X3.0Y-4.0
X3.0Y-4.1
X3.0Y-4.2
X3.0Y-4.5
X3.0Y-4.6
X3.0Y-4.7
X3.0Y-4.8
X3.0Y-4.9
X3.0Y-5.202
X3.0Y-5.3
X3.0Y-5.4
X3.0Y-5.5
X3.0Y-5.6
X3.1Y-3.102
X3.1Y-3.2
X3.1Y-3.3
X3.1Y-3.4
X3.1Y-3.5
X3.1Y-3.8
X3.1Y-3.9
X3.1Y-4.0
X3.1Y-4.1
X3.1Y-4.2
X3.1Y-4.5
X3.1Y-4.6
X3.1Y-4.7
X3.1Y-4.8
X3.1Y-4.9
X3.1Y-5.202
X3.1Y-5.3
X3.1Y-5.4
X3.1Y-5.5
X3.1Y-5.6
X3.2Y-3.102
X3.2Y-3.2
X3.2Y-3.3
X3.2Y-3.4
X3.2Y-3.5
X3.2Y-3.8
X3.2Y-3.9
X3.2Y-4.0
X3.2Y-4.1
X3.2Y-4.2
X3.2Y-4.5
X3.2Y-4.6
X3.2Y-4.7
X3.2Y-4.8
X3.2Y-4.9
X3.2Y-5.202
X3.2Y-5.3
X3.2Y-5.4
X3.2Y-5.5
X3.2Y-5.6
X3.3Y-3.102
X3.3Y-3.2
X3.3Y-3.3
X3.3Y-3.4
X3.3Y-3.5
X3.3Y-3.8
X3.3Y-3.9
X3.3Y-4.0
X3.3Y-4.1
X3.3Y-4.2
X3.3Y-4.5
X3.3Y-4.6
X3.3Y-4.7
X3.3Y-4.8
X3.3Y-4.9
X3.3Y-5.202
X3.3Y-5.3
X3.3Y-5.4
X3.3Y-5.5
X3.3Y-5.6
X3.4Y-3.102
X3.4Y-3.2
X3.4Y-3.3
X3.4Y-3.4
X3.4Y-3.5
X3.4Y-3.8
X3.4Y-3.9
X3.4Y-4.0
X3.4Y-4.1
X3.4Y-4.2
X3.4Y-4.5
X3.4Y-4.6
X3.4Y-4.7
X3.4Y-4.8
X3.4Y-4.9
X3.4Y-5.202
X3.4Y-5.3
X3.4Y-5.4
X3.4Y-5.5
X3.4Y-5.6
X3.5Y-3.102
X3.5Y-3.2
X3.5Y-3.3
X3.5Y-3.4
X3.5Y-3.5
X3.5Y-3.8
X3.5Y-3.9
X3.5Y-4.0
X3.5Y-4.1
X3.5Y-4.2
X3.5Y-4.5
X3.5Y-4.6
X3.5Y-4.7
X3.5Y-4.8
X3.5Y-4.9
X3.5Y-5.202
X3.5Y-5.3
X3.5Y-5.4
X3.5Y-5.5
X3.5Y-5.6
X3.6Y-2.902
X3.6Y-3.102
X3.6Y-3.2
X3.6Y-3.3
X3.6Y-3.4
X3.6Y-3.5
X3.6Y-3.8
X3.6Y-3.9
X3.6Y-4.0
X3.6Y-4.1
X3.6Y-4.2
X3.6Y-4.5
X3.6Y-4.6
X3.6Y-4.7
X3.6Y-4.8
X3.6Y-4.9
X3.6Y-5.202
X3.6Y-5.3
X3.6Y-5.4
X3.6Y-5.5
X3.6Y-5.6
X3.7Y-2.902
X3.7Y-3.102
X3.7Y-3.2
X3.7Y-3.3
X3.7Y-3.4
X3.7Y-3.5
X3.7Y-3.8
X3.7Y-3.9
X3.7Y-4.0
X3.7Y-4.1
X3.7Y-4.2
X3.7Y-4.5
X3.7Y-4.6
X3.7Y-4.7
X3.7Y-4.8
X3.7Y-4.9
X3.7Y-5.202
X3.7Y-5.3
X3.7Y-5.4
X3.7Y-5.5
X3.7Y-5.6
X3.8Y-2.902
X3.8Y-3.102
X3.8Y-3.2
X3.8Y-3.3
X3.8Y-3.4
X3.8Y-3.5
X3.8Y-3.8
X3.8Y-3.9
X3.8Y-4.0
X3.8Y-4.1
X3.8Y-4.2
X3.8Y-4.5
X3.8Y-4.6
X3.8Y-4.7
X3.8Y-4.8
X3.8Y-4.9
X3.8Y-5.202
X3.8Y-5.3
X3.8Y-5.4
X3.8Y-5.5
X3.8Y-5.6
X3.9Y-2.902
X3.9Y-3.102
X3.9Y-3.2
X3.9Y-3.3
X3.9Y-3.4
X3.9Y-3.5
X3.9Y-3.8
X3.9Y-3.9
X3.9Y-4.0
X3.9Y-4.1
X3.9Y-4.2
X3.9Y-4.5
X3.9Y-4.6
X3.9Y-4.7
X3.9Y-4.8
X3.9Y-4.9
X3.9Y-5.202
X3.9Y-5.3
X3.9Y-5.4
X3.9Y-5.5
X3.9Y-5.6
X4.0Y-2.902
X4.0Y-3.102
X4.0Y-3.2
X4.0Y-3.3
X4.0Y-3.4
X4.0Y-3.5
X4.0Y-3.8
X4.0Y-3.9
X4.0Y-4.0
X4.0Y-4.1
X4.0Y-4.2
X4.0Y-4.5
X4.0Y-4.6
X4.0Y-4.7
X4.0Y-4.8
X4.0Y-4.9
X4.0Y-5.202
X4.0Y-5.3
X4.0Y-5.4
X4.0Y-5.5
X4.0Y-5.6
X4.1Y-2.3
X4.1Y-2.4
X4.1Y-2.5
X4.1Y-2.6
X4.1Y-2.7
X4.1Y-2.902
X4.1Y-3.102
X4.1Y-3.2
X4.1Y-3.3
X4.1Y-3.4
X4.1Y-3.5
X4.1Y-3.8
X4.1Y-3.9
X4.1Y-4.0
X4.1Y-4.1
X4.1Y-4.2
X4.1Y-4.5
X4.1Y-4.6
X4.1Y-4.7
X4.1Y-4.8
X4.1Y-4.9
X4.1Y-5.202
X4.1Y-5.3
X4.1Y-5.4
X4.1Y-5.5
X4.1Y-5.6
X4.2Y-2.3
X4.2Y-2.4
X4.2Y-2.5
X4.2Y-2.6
X4.2Y-2.7
X4.2Y-2.902
X4.2Y-3.102
X4.2Y-3.2
X4.2Y-3.3
X4.2Y-3.4
X4.2Y-3.5
X4.2Y-3.8
X4.2Y-3.9
X4.2Y-4.0
X4.2Y-4.1
X4.2Y-4.2
X4.2Y-4.5
X4.2Y-4.6
X4.2Y-4.7
X4.2Y-4.8
X4.2Y-4.9
X4.2Y-5.202
X4.2Y-5.3
X4.2Y-5.4
X4.2Y-5.5
X4.2Y-5.6
X4.3Y-2.902
X4.3Y-3.102
X4.3Y-3.2
X4.3Y-3.3
X4.3Y-3.4
X4.3Y-3.5
X4.3Y-3.8
X4.3Y-3.9
X4.3Y-4.0
X4.3Y-4.1
X4.3Y-4.2
X4.3Y-4.5
X4.3Y-4.6
X4.3Y-4.7
X4.3Y-4.8
X4.3Y-4.9
X4.3Y-5.202
X4.3Y-5.3
X4.3Y-5.4
X4.4Y-2.902
X4.4Y-3.102
X4.4Y-3.2
X4.4Y-3.3
X4.4Y-3.4
X4.4Y-3.5
X4.4Y-3.8
X4.4Y-3.9
X4.4Y-4.0
X4.4Y-4.1
X4.4Y-4.2
X4.4Y-4.5
X4.4Y-4.6
X4.4Y-4.7
X4.4Y-4.8
X4.4Y-4.9
X4.4Y-5.202
X4.4Y-5.3
X4.4Y-5.4
X4.5Y-2.902
X4.5Y-3.102
X4.5Y-3.2
X4.5Y-3.3
X4.5Y-3.4
X4.5Y-3.5
X4.5Y-3.8
X4.5Y-3.9
X4.5Y-4.0
X4.5Y-4.1
X4.5Y-4.2
X4.5Y-4.5
X4.5Y-4.6
X4.5Y-4.7
X4.5Y-4.8
X4.5Y-4.9
X4.5Y-5.202
X4.5Y-5.3
X4.5Y-5.4
X4.6Y-2.3
X4.6Y-2.4
X4.6Y-2.5
X4.6Y-2.6
X4.6Y-2.7
X4.6Y-2.902
X4.6Y-3.102
X4.6Y-3.2
X4.6Y-3.3
X4.6Y-3.4
X4.6Y-3.5
X4.6Y-3.8
X4.6Y-3.9
X4.6Y-4.0
X4.6Y-4.1
X4.6Y-4.2
X4.6Y-4.5
X4.6Y-4.6
X4.6Y-4.7
X4.6Y-4.8
X4.6Y-4.9
X4.6Y-5.202
X4.6Y-5.3
X4.6Y-5.4
X4.7Y-2.902
X4.7Y-3.102
X4.7Y-3.2
X4.7Y-3.3
X4.7Y-3.4
X4.7Y-3.5
X4.7Y-3.8
X4.7Y-3.9
X4.7Y-4.0
X4.7Y-4.1
X4.7Y-4.2
X4.7Y-4.5
X4.7Y-4.6
X4.7Y-4.7
X4.7Y-4.8
X4.7Y-4.9
X4.7Y-5.202
X4.7Y-5.3
X4.7Y-5.4
X4.8Y-2.902
X4.8Y-3.102
X4.8Y-3.2
X4.8Y-3.3
X4.8Y-3.4
X4.8Y-3.5
X4.8Y-3.8
X4.8Y-3.9
X4.8Y-4.0
X4.8Y-4.1
X4.8Y-4.2
X4.8Y-4.5
X4.8Y-4.6
X4.8Y-4.7
X4.8Y-4.8
X4.8Y-4.9
X4.8Y-5.202
X4.8Y-5.3
X4.8Y-5.4
X4.9Y-2.902
X4.9Y-3.102
X4.9Y-3.2
X4.9Y-3.3
X4.9Y-3.4
X4.9Y-3.5
X4.9Y-3.8
X4.9Y-3.9
X4.9Y-4.0
X4.9Y-4.1
X4.9Y-4.2
X4.9Y-4.5
X4.9Y-4.6
X4.9Y-4.7
X4.9Y-4.8
X4.9Y-4.9
X4.9Y-5.202
X4.9Y-5.3
X4.9Y-5.4
X5.0Y-2.3
X5.0Y-2.4
X5.0Y-2.5
X5.0Y-2.6
X5.0Y-2.7
X5.0Y-2.902
X5.0Y-3.102
X5.0Y-3.2
X5.0Y-3.3
X5.0Y-3.4
X5.0Y-3.5
X5.0Y-3.8
X5.0Y-3.9
X5.0Y-4.0
X5.0Y-4.1
X5.0Y-4.2
X5.0Y-4.5
X5.0Y-4.6
X5.0Y-4.7
X5.0Y-4.8
X5.0Y-4.9
X5.0Y-5.202
X5.0Y-5.3
X5.0Y-5.4
X5.1Y-2.3
X5.1Y-2.4
X5.1Y-2.5
X5.1Y-2.6
X5.1Y-2.7
X5.1Y-2.902
X5.1Y-3.102
X5.1Y-3.2
X5.1Y-3.3
X5.1Y-3.4
X5.1Y-3.5
X5.1Y-3.8
X5.1Y-3.9
X5.1Y-4.0
X5.1Y-4.1
X5.1Y-4.2
X5.1Y-4.5
X5.1Y-4.6
X5.1Y-4.7
X5.1Y-4.8
X5.1Y-4.9
X5.1Y-5.202
X5.1Y-5.3
X5.1Y-5.4
X5.2Y-2.902
X5.2Y-3.102
X5.2Y-3.2
X5.2Y-3.3
X5.2Y-3.4
X5.2Y-3.5
X5.2Y-3.8
X5.2Y-3.9
X5.2Y-4.0
X5.2Y-4.1
X5.2Y-4.2
X5.2Y-4.5
X5.2Y-4.6
X5.2Y-4.7
X5.2Y-4.8
X5.2Y-4.9
X5.2Y-5.202
X5.2Y-5.3
X5.2Y-5.4
X5.3Y-2.902
X5.3Y-3.102
X5.3Y-3.2
X5.3Y-3.3
X5.3Y-3.4
X5.3Y-3.5
X5.3Y-3.8
X5.3Y-3.9
X5.3Y-4.0
X5.3Y-4.1
X5.3Y-4.2
X5.3Y-4.5
X5.3Y-4.6
X5.3Y-4.7
X5.3Y-4.8
X5.3Y-4.9
X5.3Y-5.202
X5.3Y-5.3
X5.3Y-5.4
X5.3Y-5.5
X5.3Y-5.6
X5.4Y-2.902
X5.4Y-3.102
X5.4Y-3.2
X5.4Y-3.3
X5.4Y-3.4
X5.4Y-3.5
X5.4Y-3.8
X5.4Y-3.9
X5.4Y-4.0
X5.4Y-4.1
X5.4Y-4.2
X5.4Y-4.5
X5.4Y-4.6
X5.4Y-4.7
X5.4Y-4.8
X5.4Y-4.9
X5.4Y-5.202
X5.4Y-5.3
X5.4Y-5.4
X5.4Y-5.5
X5.4Y-5.6
X5.5Y-2.902
X5.5Y-3.102
X5.5Y-3.2
X5.5Y-3.3
X5.5Y-3.4
X5.5Y-3.5
X5.5Y-3.8
X5.5Y-3.9
X5.5Y-4.0
X5.5Y-4.1
X5.5Y-4.2
X5.5Y-4.5
X5.5Y-4.6
X5.5Y-4.7
X5.5Y-4.8
X5.5Y-4.9
X5.5Y-5.202
X5.5Y-5.3
X5.5Y-5.4
X5.5Y-5.5
X5.5Y-5.6
X5.6Y-2.902
X5.6Y-3.102
X5.6Y-3.2
X5.6Y-3.3
X5.6Y-3.4
X5.6Y-3.5
X5.6Y-3.8
X5.6Y-3.9
X5.6Y-4.0
X5.6Y-4.1
X5.6Y-4.2
X5.6Y-4.5
X5.6Y-4.6
X5.6Y-4.7
X5.6Y-4.8
X5.6Y-4.9
X5.6Y-5.202
X5.6Y-5.3
X5.6Y-5.4
X5.6Y-5.5
X5.6Y-5.6
X5.7Y-2.902
X5.7Y-3.102
X5.7Y-3.2
X5.7Y-3.3
X5.7Y-3.4
X5.7Y-3.5
X5.7Y-3.8
X5.7Y-3.9
X5.7Y-4.0
X5.7Y-4.1
X5.7Y-4.2
X5.7Y-4.5
X5.7Y-4.6
X5.7Y-4.7
X5.7Y-4.8
X5.7Y-4.9
X5.7Y-5.202
X5.7Y-5.3
X5.7Y-5.4
X5.7Y-5.5
X5.7Y-5.6
X5.8Y-2.902
X5.8Y-3.102
X5.8Y-3.2
X5.8Y-3.3
X5.8Y-3.4
X5.8Y-3.5
X5.8Y-3.8
X5.8Y-3.9
X5.8Y-4.0
X5.8Y-4.1
X5.8Y-4.2
X5.8Y-4.5
X5.8Y-4.6
X5.8Y-4.7
X5.8Y-4.8
X5.8Y-4.9
X5.8Y-5.202
X5.8Y-5.3
X5.8Y-5.4
X5.8Y-5.5
X5.8Y-5.6
X5.9Y-2.902
X5.9Y-3.102
X5.9Y-3.2
X5.9Y-3.3
X5.9Y-3.4
X5.9Y-3.5
X5.9Y-3.8
X5.9Y-3.9
X5.9Y-4.0
X5.9Y-4.1
X5.9Y-4.2
X5.9Y-4.5
X5.9Y-4.6
X5.9Y-4.7
X5.9Y-4.8
X5.9Y-4.9
X5.9Y-5.202
X5.9Y-5.3
X5.9Y-5.4
X5.9Y-5.5
X5.9Y-5.6
X6.0Y-2.902
X6.0Y-3.102
X6.0Y-3.2
X6.0Y-3.3
X6.0Y-3.4
X6.0Y-3.5
X6.0Y-3.8
X6.0Y-3.9
X6.0Y-4.0
X6.0Y-4.1
X6.0Y-4.2
X6.0Y-4.5
X6.0Y-4.6
X6.0Y-4.7
X6.0Y-4.8
X6.0Y-4.9
X6.0Y-5.202
X6.0Y-5.3
X6.0Y-5.4
X6.0Y-5.5
X6.0Y-5.6
X6.1Y-2.902
X6.1Y-3.102
X6.1Y-3.2
X6.1Y-3.3
X6.1Y-3.4
X6.1Y-3.5
X6.1Y-3.8
X6.1Y-3.9
X6.1Y-4.0
X6.1Y-4.1
X6.1Y-4.2
X6.1Y-4.5
X6.1Y-4.6
X6.1Y-4.7
X6.1Y-4.8
X6.1Y-4.9
X6.1Y-5.202
X6.1Y-5.3
X6.1Y-5.4
X6.1Y-5.5
X6.1Y-5.6
X6.2Y-2.902
X6.2Y-3.102
X6.2Y-3.2
X6.2Y-3.3
X6.2Y-3.4
X6.2Y-3.5
X6.2Y-3.8
X6.2Y-3.9
X6.2Y-4.0
X6.2Y-4.1
X6.2Y-4.2
X6.2Y-4.5
X6.2Y-4.6
X6.2Y-4.7
X6.2Y-4.8
X6.2Y-4.9
X6.2Y-5.202
X6.2Y-5.3
X6.2Y-5.4
X6.2Y-5.5
X6.2Y-5.6
X6.3Y-2.902
X6.3Y-3.1
X6.3Y-3.198
X6.3Y-3.298
X6.3Y-3.398
X6.3Y-3.498
X6.3Y-3.8
X6.3Y-3.9
X6.3Y-4.0
X6.3Y-4.1
X6.3Y-4.2
X6.3Y-4.5
X6.3Y-4.6
X6.3Y-4.7
X6.3Y-4.8
X6.3Y-4.9
X6.3Y-5.2
X6.3Y-5.298
X6.3Y-5.398
X6.4Y-2.3
X6.4Y-2.4
X6.4Y-2.5
X6.4Y-2.6
X6.4Y-2.7
X6.4Y-2.902
X6.4Y-3.1
X6.4Y-3.198
X6.4Y-3.298
X6.4Y-3.398
X6.4Y-3.498
X6.4Y-3.8
X6.4Y-3.9
X6.4Y-4.0
X6.4Y-4.1
X6.4Y-4.2
X6.4Y-4.5
X6.4Y-4.6
X6.4Y-4.7
X6.4Y-4.8
X6.4Y-4.9
X6.4Y-5.2
X6.4Y-5.298
X6.4Y-5.398
X6.5Y-2.3
X6.5Y-2.4
X6.5Y-2.5
X6.5Y-2.6
X6.5Y-2.7
X6.5Y-2.902
X6.5Y-3.1
X6.5Y-3.198
X6.5Y-3.298
X6.5Y-3.398
X6.5Y-3.498
X6.5Y-3.8
X6.5Y-3.9
X6.5Y-4.0
X6.5Y-4.1
X6.5Y-4.2
X6.5Y-4.5
X6.5Y-4.6
X6.5Y-4.7
X6.5Y-4.8
X6.5Y-4.9
X6.5Y-5.2
X6.5Y-5.298
X6.5Y-5.398
X6.6Y-2.902
X6.6Y-3.1
X6.6Y-3.198
X6.6Y-3.298
X6.6Y-3.398
X6.6Y-3.498
X6.6Y-3.8
X6.6Y-3.9
X6.6Y-4.0
X6.6Y-4.1
X6.6Y-4.2
X6.6Y-4.5
X6.6Y-4.6
X6.6Y-4.7
X6.6Y-4.8
X6.6Y-4.9
X6.6Y-5.2
X6.6Y-5.298
X6.6Y-5.398
X6.7Y-2.902
X6.7Y-3.1
X6.7Y-3.198
X6.7Y-3.298
X6.7Y-3.398
X6.7Y-3.498
X6.7Y-3.8
X6.7Y-3.9
X6.7Y-4.0
X6.7Y-4.1
X6.7Y-4.2
X6.7Y-4.5
X6.7Y-4.6
X6.7Y-4.7
X6.7Y-4.8
X6.7Y-4.9
X6.7Y-5.2
X6.7Y-5.298
X6.7Y-5.398
X6.8Y-2.902
X6.8Y-3.1
X6.8Y-3.198
X6.8Y-3.298
X6.8Y-3.398
X6.8Y-3.498
X6.8Y-3.8
X6.8Y-3.9
X6.8Y-4.0
X6.8Y-4.1
X6.8Y-4.2
X6.8Y-4.5
X6.8Y-4.6
X6.8Y-4.7
X6.8Y-4.8
X6.8Y-4.9
X6.8Y-5.2
X6.8Y-5.298
X6.8Y-5.398
X6.9Y-2.3
X6.9Y-2.4
X6.9Y-2.5
X6.9Y-2.6
X6.9Y-2.7
X6.9Y-2.902
X6.9Y-3.1
X6.9Y-3.198
X6.9Y-3.298
X6.9Y-3.398
X6.9Y-3.498
X6.9Y-3.8
X6.9Y-3.9
X6.9Y-4.0
X6.9Y-4.1
X6.9Y-4.2
X6.9Y-4.5
X6.9Y-4.6
X6.9Y-4.7
X6.9Y-4.8
X6.9Y-4.9
X6.9Y-5.2
X6.9Y-5.298
X6.9Y-5.398
X7.0Y-2.902
X7.0Y-3.1
X7.0Y-3.198
X7.0Y-3.298
X7.0Y-3.398
X7.0Y-3.498
X7.0Y-3.8
X7.0Y-3.9
X7.0Y-4.0
X7.0Y-4.1
X7.0Y-4.2
X7.0Y-4.5
X7.0Y-4.6
X7.0Y-4.7
X7.0Y-4.8
X7.0Y-4.9
X7.0Y-5.2
X7.0Y-5.298
X7.0Y-5.398
X7.1Y-2.9
X7.1Y-3.1
X7.1Y-3.198
X7.1Y-3.298
X7.1Y-3.398
X7.1Y-3.498
X7.1Y-3.8
X7.1Y-3.9
X7.1Y-4.0
X7.1Y-4.1
X7.1Y-4.2
X7.1Y-4.5
X7.1Y-4.6
X7.1Y-4.7
X7.1Y-4.8
X7.1Y-4.9
X7.1Y-5.2
X7.1Y-5.298
X7.1Y-5.398
X7.2Y-2.9
X7.2Y-3.1
X7.2Y-3.198
X7.2Y-3.298
X7.2Y-3.398
X7.2Y-3.498
X7.2Y-3.8
X7.2Y-3.9
X7.2Y-4.0
X7.2Y-4.1
X7.2Y-4.2
X7.2Y-4.5
X7.2Y-4.6
X7.2Y-4.7
X7.2Y-4.8
X7.2Y-4.9
X7.2Y-5.2
X7.2Y-5.298
X7.2Y-5.398
X7.3Y-2.3
X7.3Y-2.4
X7.3Y-2.5
X7.3Y-2.6
X7.3Y-2.7
X7.3Y-2.9
X7.3Y-3.102
X7.3Y-3.2
X7.3Y-3.3
X7.3Y-3.4
X7.3Y-3.5
X7.3Y-3.8
X7.3Y-3.9
X7.3Y-4.0
X7.3Y-4.1
X7.3Y-4.2
X7.3Y-4.5
X7.3Y-4.6
X7.3Y-4.7
X7.3Y-4.8
X7.3Y-4.9
X7.3Y-5.202
X7.3Y-5.3
X7.3Y-5.4
X7.3Y-5.5
X7.3Y-5.6
X7.4Y-2.3
X7.4Y-2.4
X7.4Y-2.5
X7.4Y-2.6
X7.4Y-2.7
X7.4Y-2.9
X7.4Y-3.102
X7.4Y-3.2
X7.4Y-3.3
X7.4Y-3.4
X7.4Y-3.5
X7.4Y-3.8
X7.4Y-3.9
X7.4Y-4.0
X7.4Y-4.1
X7.4Y-4.2
X7.4Y-4.5
X7.4Y-4.6
X7.4Y-4.7
X7.4Y-4.8
X7.4Y-4.9
X7.4Y-5.202
X7.4Y-5.3
X7.4Y-5.4
X7.4Y-5.5
X7.4Y-5.6
X7.5Y-2.9
X7.5Y-3.102
X7.5Y-3.2
X7.5Y-3.3
X7.5Y-3.4
X7.5Y-3.5
X7.5Y-3.8
X7.5Y-3.9
X7.5Y-4.0
X7.5Y-4.1
X7.5Y-4.2
X7.5Y-4.5
X7.5Y-4.6
X7.5Y-4.7
X7.5Y-4.8
X7.5Y-4.9
X7.5Y-5.202
X7.5Y-5.3
X7.5Y-5.4
X7.5Y-5.5
X7.5Y-5.6
X7.6Y-2.9
X7.6Y-3.102
X7.6Y-3.2
X7.6Y-3.3
X7.6Y-3.4
X7.6Y-3.5
X7.6Y-3.8
X7.6Y-3.9
X7.6Y-4.0
X7.6Y-4.1
X7.6Y-4.2
X7.6Y-4.5
X7.6Y-4.6
X7.6Y-4.7
X7.6Y-4.8
X7.6Y-4.9
X7.6Y-5.202
X7.6Y-5.3
X7.6Y-5.4
X7.6Y-5.5
X7.6Y-5.6
X7.7Y-2.9
X7.7Y-3.102
X7.7Y-3.2
X7.7Y-3.3
X7.7Y-3.4
X7.7Y-3.5
X7.7Y-3.8
X7.7Y-3.9
X7.7Y-4.0
X7.7Y-4.1
X7.7Y-4.2
X7.7Y-4.5
X7.7Y-4.6
X7.7Y-4.7
X7.7Y-4.8
X7.7Y-4.9
X7.7Y-5.202
X7.7Y-5.3
X7.7Y-5.4
X7.7Y-5.5
X7.7Y-5.6
X7.8Y-2.9
X7.8Y-3.102
X7.8Y-3.2
X7.8Y-3.3
X7.8Y-3.4
X7.8Y-3.5
X7.8Y-3.8
X7.8Y-3.9
X7.8Y-4.0
X7.8Y-4.1
X7.8Y-4.2
X7.8Y-4.5
X7.8Y-4.6
X7.8Y-4.7
X7.8Y-4.8
X7.8Y-4.9
X7.8Y-5.202
X7.8Y-5.3
X7.8Y-5.4
X7.8Y-5.5
X7.8Y-5.6
X7.9Y-2.9
X7.9Y-3.102
X7.9Y-3.2
X7.9Y-3.3
X7.9Y-3.4
X7.9Y-3.5
X7.9Y-3.8
X7.9Y-3.9
X7.9Y-4.0
X7.9Y-4.1
X7.9Y-4.2
X7.9Y-4.5
X7.9Y-4.6
X7.9Y-4.7
X7.9Y-4.8
X7.9Y-4.9
X7.9Y-5.202
X7.9Y-5.3
X7.9Y-5.4
X7.9Y-5.5
X7.9Y-5.6
X8.0Y-2.9
X8.0Y-3.102
X8.0Y-3.2
X8.0Y-3.3
X8.0Y-3.4
X8.0Y-3.5
X8.0Y-3.8
X8.0Y-3.9
X8.0Y-4.0
X8.0Y-4.1
X8.0Y-4.2
X8.0Y-4.5
X8.0Y-4.6
X8.0Y-4.7
X8.0Y-4.8
X8.0Y-4.9
X8.0Y-5.202
X8.0Y-5.3
X8.0Y-5.4
X8.0Y-5.5
X8.0Y-5.6
X8.1Y-3.102
X8.1Y-3.2
X8.1Y-3.3
X8.1Y-3.4
X8.1Y-3.5
X8.1Y-3.8
X8.1Y-3.9
X8.1Y-4.0
X8.1Y-4.1
X8.1Y-4.2
X8.1Y-4.5
X8.1Y-4.6
X8.1Y-4.7
X8.1Y-4.8
X8.1Y-4.9
X8.1Y-5.202
X8.1Y-5.3
X8.1Y-5.4
X8.1Y-5.5
X8.1Y-5.6
X8.2Y-3.102
X8.2Y-3.2
X8.2Y-3.3
X8.2Y-3.4
X8.2Y-3.5
X8.2Y-3.8
X8.2Y-3.9
X8.2Y-4.0
X8.2Y-4.1
X8.2Y-4.2
X8.2Y-4.5
X8.2Y-4.6
X8.2Y-4.7
X8.2Y-4.8
X8.2Y-4.9
X8.2Y-5.202
X8.2Y-5.3
X8.2Y-5.4
X8.2Y-5.5
X8.2Y-5.6
X8.3Y-3.102
X8.3Y-3.2
X8.3Y-3.3
X8.3Y-3.4
X8.3Y-3.5
X8.3Y-3.8
X8.3Y-3.9
X8.3Y-4.0
X8.3Y-4.1
X8.3Y-4.2
X8.3Y-4.5
X8.3Y-4.6
X8.3Y-4.7
X8.3Y-4.8
X8.3Y-4.9
X8.3Y-5.202
X8.3Y-5.3
X8.3Y-5.4
X8.3Y-5.5
X8.3Y-5.6
X8.4Y-3.102
X8.4Y-3.2
X8.4Y-3.3
X8.4Y-3.4
X8.4Y-3.5
X8.4Y-3.8
X8.4Y-3.9
X8.4Y-4.0
X8.4Y-4.1
X8.4Y-4.2
X8.4Y-4.5
X8.4Y-4.6
X8.4Y-4.7
X8.4Y-4.8
X8.4Y-4.9
X8.4Y-5.202
X8.4Y-5.3
X8.4Y-5.4
X8.4Y-5.5
X8.4Y-5.6
X8.5Y-3.102
X8.5Y-3.2
X8.5Y-3.3
X8.5Y-3.4
X8.5Y-3.5
X8.5Y-3.8
X8.5Y-3.9
X8.5Y-4.0
X8.5Y-4.1
X8.5Y-4.2
X8.5Y-4.5
X8.5Y-4.6
X8.5Y-4.7
X8.5Y-4.8
X8.5Y-4.9
X8.5Y-5.202
X8.5Y-5.3
X8.5Y-5.4
X8.5Y-5.5
X8.5Y-5.6
X8.6Y-3.102
X8.6Y-3.2
X8.6Y-3.3
X8.6Y-3.4
X8.6Y-3.5
X8.6Y-3.8
X8.6Y-3.9
X8.6Y-4.0
X8.6Y-4.1
X8.6Y-4.2
X8.6Y-4.5
X8.6Y-4.6
X8.6Y-4.7
X8.6Y-4.8
X8.6Y-4.9
X8.6Y-5.202
X8.6Y-5.3
X8.6Y-5.4
X8.6Y-5.5
X8.6Y-5.6
X8.7Y-3.102
X8.7Y-3.2
X8.7Y-3.3
X8.7Y-3.4
X8.7Y-3.5
X8.7Y-3.8
X8.7Y-3.9
X8.7Y-4.0
X8.7Y-4.1
X8.7Y-4.2
X8.7Y-4.5
X8.7Y-4.6
X8.7Y-4.7
X8.7Y-4.8
X8.7Y-4.9
X8.7Y-5.202
X8.7Y-5.3
X8.7Y-5.4
X8.7Y-5.5
X8.7Y-5.6
T3
X3.2185Y-2.6969
X3.2185Y-2.7969
X3.2677Y-2.2343
X3.3677Y-2.2343
X3.4677Y-2.2343
X3.5236Y-2.6969
X3.5677Y-2.2343
X3.95Y-2.35
X3.95Y-2.7
X7.9528Y-2.6969
X8.2579Y-2.6969
X8.2579Y-2.7969
T4
X2.6953Y-2.5972
X2.6953Y-2.7972
X2.7953Y-2.6972
X2.8953Y-2.5972
X2.8953Y-2.7972
X8.5811Y-2.5972
X8.5811Y-2.7972
X8.6811Y-2.6972
X8.7811Y-2.5972
X8.7811Y-2.7972
T5
X2.4606Y-2.2638
X2.4606Y-5.7087
X9.0157Y-2.2638
X9.0157Y-5.7087
T0
M30
